<?xml version="1.0" encoding="UTF-8"?>
<svg id="Layer_2" data-name="Layer 2" xmlns="http://www.w3.org/2000/svg" viewBox="0 0 221.72 214.84">
  <defs>
    <style>
      .cls-1 {
        opacity: .55;
      }

      .cls-1, .cls-2 {
        fill: #d2dde6;
      }
    </style>
  </defs>
  <g id="Layer_1-2" data-name="Layer 1">
    <g>
      <path class="cls-1" d="M0,135.68v-56.95c0-5.46,4.63-9.93,10.29-9.93h61.02V9.93c0-5.46,4.63-9.93,10.29-9.93h59.02c5.66,0,10.29,4.47,10.29,9.93v16.37c0,65.89-55.36,119.31-123.65,119.31H10.29c-5.65,0-10.29-4.45-10.29-9.93"/>
      <path class="cls-2" d="M221.72,79.15v56.95c0,5.46-4.63,9.93-10.29,9.93h-61.02v58.88c0,5.46-4.63,9.93-10.29,9.93h-59.02c-5.66,0-10.29-4.47-10.29-9.93v-16.37c0-65.9,55.36-119.32,123.65-119.32h16.96c5.65,0,10.29,4.45,10.29,9.93"/>
    </g>
  </g>
</svg>