<?xml version="1.0" encoding="UTF-8"?>
<svg id="Layer_2" data-name="Layer 2" xmlns="http://www.w3.org/2000/svg" viewBox="0 0 172.97 149.13">
  <defs>
    <style>
      .cls-1 {
        opacity: .55;
      }

      .cls-2 {
        fill: #d2dde6;
      }
    </style>
  </defs>
  <g id="Layer_1-2" data-name="Layer 1">
    <g>
      <g class="cls-1">
        <path class="cls-2" d="M78.93,103.56c-.69.37-1.39.75-2.09,1.13-.49.26-.96.53-1.45.78l-18.63.43h-.13c-6.48.57-10.21,3.64-11.06,9.16-.11.61-.15,1.2-.16,1.78-1.97,1.07-3.6,2.27-6.64,4.86l-.16.14c-1.03,1.03-2.55,1.47-4.18,1.17-3.6-.59-11.06-3.03-20.69-12.67C4.9,101.53,1.52,94.36.23,89.9c-.58-1.98-.04-3.93,1.39-5.07l.09-.07c2.55-2.02,4.91-4.21,6.99-6.52,5.7-6.25,9.17-11.66,13.95-20.07,1.85-3.25,4-6.12,6.41-8.54l10.35-10.35c.5,1.41,1.31,2.74,2.44,3.88l1.31,1.31c-2.1.33-4.1,1.31-5.73,2.93-1.94,1.94-3.02,4.54-3.03,7.34.01,2.77,1.1,5.36,3.03,7.31l41.5,41.5Z"/>
        <path class="cls-2" d="M134.34,28.71c0,1.64-.65,3.18-1.79,4.34l-12.64,12.63-8.66-8.67,12.72-12.71.09-.09c2.43-2.24,6.15-2.18,8.49.17,1.15,1.15,1.79,2.69,1.79,4.33Z"/>
        <path class="cls-2" d="M83.47,10.15c-.09,1.37-.79,2.76-2.03,4.04l-8.47,8.47c-1.29-.57-2.69-.87-4.16-.87-2.77.01-5.37,1.08-7.31,3.04-1.6,1.58-2.6,3.59-2.93,5.77l-2.07-2.07c-1.11-1.11-2.43-1.93-3.88-2.43l20.28-20.28c1.21-1.21,2.7-1.89,4.21-1.91h.07c1.57,0,3.1.7,4.45,2.05s1.94,2.73,1.85,4.21Z"/>
        <path class="cls-2" d="M128.12,14.16l-6.95,6.97c-.11.08-.2.17-.29.26l-12.63,12.63-5.2-5.19c-1.28-1.28-2.74-2.16-4.28-2.67l20.68-20.68c1.16-1.15,2.7-1.8,4.33-1.8s3.19.65,4.34,1.8c2.39,2.39,2.39,6.28,0,8.67Z"/>
        <path class="cls-2" d="M110.27,6.14c0,1.64-.63,3.17-1.79,4.33l-15.72,15.73c-1.57.53-3.07,1.44-4.41,2.77-1.32,1.31-2.2,2.77-2.68,4.32l-.53.54-8.68-8.68,7.89-7.88s.07-.07.09-.11l15.36-15.36c1.16-1.15,2.71-1.79,4.33-1.79s3.19.65,4.34,1.79c1.16,1.16,1.79,2.69,1.79,4.34Z"/>
      </g>
      <path class="cls-2" d="M172.74,115.94c-1.29,4.45-4.68,11.6-13.51,20.44-9.63,9.63-17.1,12.07-20.7,12.67-1.62.28-3.15-.15-4.21-1.21l-.12-.11c-3.09-2.64-4.74-3.84-6.76-4.92-1-.54-1.85-1.02-2.6-1.44-4.38-2.47-5.75-3.1-14.53-4.47-4-.63-9.18-3.46-14.19-6.19-4.3-2.34-8.35-4.55-11.65-5.36l-28.61-2.31c-2.22-.2-4.1-1.11-5.16-2.47-.95-1.21-1.27-2.85-.96-4.86.69-4.39,4.01-5.29,7.19-5.58l33.78-.78-50.29-50.29c-1.16-1.15-1.79-2.69-1.81-4.31.01-1.65.65-3.19,1.81-4.36,2.35-2.34,6.08-2.4,8.46-.18l35.11,35.09,2.98-3-34.9-34.9c-.09-.09-.18-.17-.28-.26l-6.97-6.95c-1.15-1.16-1.8-2.71-1.8-4.34s.65-3.17,1.8-4.33c1.16-1.16,2.7-1.79,4.33-1.81,1.65.01,3.19.65,4.34,1.81l42.15,42.13,2.98-3-34.15-34.16c-1.16-1.16-1.79-2.7-1.79-4.34s.63-3.18,1.79-4.33c1.16-1.16,2.71-1.79,4.33-1.81,1.65.01,3.19.65,4.34,1.81l15.4,15.4s.04.04.07.05l18.7,18.7,3-2.98-18.75-18.75c-1.27-1.28-1.98-2.69-2.06-4.08-.09-1.46.53-2.89,1.85-4.21,1.36-1.35,2.9-2.07,4.51-2.03,1.5.01,3,.7,4.21,1.91l43.84,43.84c2.4,2.41,4.57,5.28,6.41,8.54,4.78,8.41,8.23,13.82,13.95,20.07,2.09,2.3,4.43,4.5,7.06,6.56,1.45,1.16,1.99,3.11,1.41,5.11Z"/>
    </g>
  </g>
</svg>