<?xml version="1.0" encoding="UTF-8"?>
<svg id="Layer_2" data-name="Layer 2" xmlns="http://www.w3.org/2000/svg" viewBox="0 0 762.16 163.52">
  <defs>
    <style>
      .cls-1 {
        fill: #d2dde6;
      }
    </style>
  </defs>
  <g id="Layer_1-2" data-name="Layer 1">
    <g>
      <g>
        <g>
          <path class="cls-1" d="M496.07,51.02c0,22.79,16.28,39.98,37.91,39.98,10.41,0,18.82-3.47,25.68-10.7.76-.78,1.97-.78,2.69,0l4.43,4.78c.8.86.8,2.29,0,3.14-8.03,8.86-19.81,13.72-33.21,13.72-27.68,0-48.55-21.89-48.55-50.93S505.5.09,533.71.09c13.37,0,25.11,4.82,33.06,13.6.8.86.8,2.29,0,3.14l-4.43,4.74c-.72.82-1.89.82-2.69.04-6.89-7.15-15.3-10.58-25.68-10.58-21.62,0-37.91,17.19-37.91,39.98Z"/>
          <path class="cls-1" d="M638.51,30.95h-6.43c-1.15,0-2.03.92-2.03,2.07v7.88c0,.32-.23.44-.31.44-.08.04-.34.12-.57-.16-5.67-6.93-14.09-10.75-23.67-10.75-19.65,0-33.93,15.01-33.93,35.68s14.29,35.84,33.93,35.84c9.88,0,18.42-3.98,24.05-11.23.19-.28.46-.2.54-.2.12.04.31.16.31.48v8.2c0,1.15.92,2.11,2.03,2.11h6.09c1.11,0,2.03-.96,2.03-2.11V33.02c0-1.15-.92-2.07-2.03-2.07ZM606.26,92.11c-14.17,0-24.05-10.67-24.05-26s9.88-26,24.05-26,23.9,10.71,23.9,26-9.84,26-23.9,26Z"/>
          <path class="cls-1" d="M691.7,33.22v8.48h-.8c-.48,0-.92-.04-1.36-.08-.36-.04-.68-.08-1-.08-15.02,0-23.63,8.96-23.63,24.57v33.73c0,1.15-1,2.11-2.2,2.11h-7.05c-1.2,0-2.16-.96-2.16-2.11V33.18c0-1.15.96-2.11,2.16-2.11h6.65c1.2,0,2.16.96,2.16,2.11v7.92c0,.28.2.4.36.48.2.08.52.04.72-.24,5.09-6.53,13.1-9.95,23.87-10.27.64,0,1.2.24,1.6.64.44.4.68.96.68,1.51Z"/>
          <path class="cls-1" d="M729.11,30.43c-19.26,0-33.24,15.01-33.24,35.68s14.64,35.84,35.68,35.84c10.38,0,19.45-3.78,25.49-10.63.7-.8.7-1.99,0-2.83l-3.41-4.02c-.39-.44-.89-.72-1.43-.72-.5-.04-1.16.2-1.55.64-4.77,5.06-11.27,7.72-18.87,7.72-13.79,0-23.71-8.52-25.26-21.74-.04-.2.08-.32.12-.4.12-.12.23-.2.39-.2h55.01v-.8c0-.52,0-1.08.04-1.59.04-.44.08-.88.08-1.27,0-21.02-13.6-35.68-33.05-35.68ZM751.74,61.09c-.12.12-.27.16-.39.16h-44.28c-.16,0-.31-.04-.39-.16-.08-.08-.16-.2-.16-.4,1.67-12.38,10.73-20.71,22.59-20.71s21.08,8.32,22.74,20.71c.04.2-.08.32-.12.4Z"/>
        </g>
        <g>
          <path class="cls-1" d="M307.87,10.19c-.3-.48-.6-.9-.94-1.34-.53-.77-1.13-1.55-1.57-2.37-.39-.65-.74-1.3-1.08-1.99-.16-.34-.34-.69-.51-1.07-.05-.17-.3-.69-.34-.86l-.94-2.55-1.17,3.1c-.78,2.03-1.98,3.79-3.27,5.65-.48.69-.92,1.38-1.38,2.07-1.43,2.24-3.15,5.55-1.47,8.88,1.24,2.58,4.05,4.17,7.29,4.17h.25c3.36-.08,6.17-1.84,7.29-4.56,1.38-3.27-.34-6.45-2.16-9.13ZM301.04,22.44c-.81.33-3.24-.9-4.44-3.27-1.17-2.35-.67-4.92.16-5.28.81-.34.09,2.41,1.27,4.77,1.2,2.35,3.84,3.41,3.01,3.77Z"/>
          <path class="cls-1" d="M308.2,37.69v63.37c0,.49-.4.88-.89.88h-9.61c-.49,0-.89-.39-.89-.88v-63.74c0-3.15,2.57-5.74,5.77-5.73,3.19,0,5.61,2.94,5.61,6.11Z"/>
          <path class="cls-1" d="M287.13,81.24c.04,4.78-1.68,9.08-4.97,12.42-5.25,5.3-14.1,8.16-25.6,8.28h-.52c-10.9,0-22.11-3.03-28.68-7.72-.88-.6-1.12-1.79-.56-2.71l3-5.1c.32-.52.8-.88,1.36-1,.56-.16,1.24-.04,1.76.28,6.29,4.1,15.54,6.65,24.24,6.53,6.45-.04,11.34-1.11,14.46-3.07,2.76-1.75,4.13-4.3,4.09-7.53-.04-7.37-8.97-8.8-19.31-10.43-13.1-2.11-27.92-4.46-28.08-20.15-.08-5.97,2.56-11.07,7.61-14.73,5.21-3.82,12.7-5.85,21.71-5.93h.48c8.85,0,18.47,2.19,24.6,5.61,1,.56,1.36,1.83.76,2.83l-2.88,5.18c-.28.48-.76.84-1.28,1-.6.16-1.24.08-1.76-.24-5.41-3.15-12.14-4.82-19.39-4.82h-.44c-7.25.08-12.66,1.67-15.54,4.58-1.64,1.67-2.48,3.74-2.44,6.17.08,7.76,9.25,9.28,19.91,11.03,12.82,2.11,27.32,4.5,27.48,19.51Z"/>
          <path class="cls-1" d="M355.51,30.39c-21.91,0-37.81,15.01-37.81,35.72s15.9,35.84,37.81,35.84,37.69-15.09,37.69-35.84-15.86-35.72-37.69-35.72ZM355.51,92.11c-15.46,0-26.28-10.71-26.28-26s10.82-26,26.28-26,26.16,10.67,26.16,26-10.78,26-26.16,26Z"/>
          <path class="cls-1" d="M90.09,61.25v38.58c0,1.15-.96,2.11-2.12,2.11h-6.65c-1.16,0-2.08-.96-2.08-2.11v-37.67c0-13.86-6.85-21.14-19.83-21.14-14.5,0-23.19,8.96-23.19,24.05v34.76c0,1.15-.92,2.11-2.08,2.11h-6.65c-1.16,0-2.12-.96-2.12-2.11V33.65c0-1.15.96-2.07,2.12-2.07h6.25c1.16,0,2.12.92,2.12,2.07v7.33c0,.32.2.44.28.48.08.04.36.08.56-.2,5.49-6.57,14.14-10.19,24.4-10.19,18.15,0,29,11.27,29,30.18Z"/>
          <path class="cls-1" d="M11.82,6.03v93.66c0,1.25-1,2.25-2.2,2.25H2.16c-1.2,0-2.16-1.01-2.16-2.21V6.03C0,2.73,2.64,0,5.93,0s5.89,2.69,5.89,6.03Z"/>
          <path class="cls-1" d="M142.99,9.27c-.5,1.57-2.15,3.22-2.87,4.3-1.3,1.97-2.59,1.19-4.36.38-1.11-.51-2.32-.79-3.54-.92-3.3-.35-7.9-.38-10.15,2.51-1.99,2.56-1.9,6.37-1.9,9.42v6.75c0,.28.24.51.56.51h19.63c1.2,0,2.16.91,2.16,2.05v5.21c0,1.14-.96,2.09-2.16,2.09h-19.35c-.32,0-.56.2-.56.47v57.8c0,1.14-1,2.09-2.2,2.09h-7.05c-1.2,0-2.16-.95-2.16-2.09v-57.8c0-.28-.28-.47-.56-.47h-10.25c-1.2,0-2.16-.95-2.16-2.09v-5.21c0-1.14.96-2.05,2.16-2.05h10.25c.28,0,.56-.24.56-.51v-7.14c0-6.19,1.28-13.08,6.46-17.16,2.52-1.99,5.64-3.04,8.8-3.51,5.12-.75,10.4-.45,15.27,1.34,1.77.65,4.13,1.8,3.42,4.04Z"/>
          <path class="cls-1" d="M216.55,33.14v66.18c0,1.15-.92,2.07-2.08,2.07h-6.25c-1.16,0-2.12-.92-2.12-2.07v-7.33c0-.32-.2-.44-.32-.48-.08,0-.32-.08-.56.2-5.45,6.57-14.14,10.23-24.4,10.23-18.15,0-28.96-11.31-28.96-30.22v-38.58c0-1.15.92-2.07,2.08-2.07h6.69c1.16,0,2.08.92,2.08,2.07v37.67c0,13.86,6.85,21.14,19.79,21.14,14.54,0,23.19-8.96,23.19-24.01v-34.8c0-1.15.96-2.07,2.12-2.07h6.65c1.16,0,2.08.92,2.08,2.07Z"/>
          <path class="cls-1" d="M466.11,61.25v38.58c0,1.15-.96,2.11-2.12,2.11h-6.65c-1.16,0-2.08-.96-2.08-2.11v-37.67c0-13.86-6.85-21.14-19.83-21.14-14.5,0-23.15,8.96-23.15,24.05v34.76c0,1.15-.96,2.11-2.12,2.11h-6.65c-1.16,0-2.12-.96-2.12-2.11V33.65c0-1.15.96-2.07,2.12-2.07h6.25c1.16,0,2.12.92,2.12,2.07v7.33c0,.32.2.44.32.48.04.04.32.08.56-.2,5.45-6.57,14.14-10.19,24.4-10.19,18.15,0,28.96,11.27,28.96,30.18Z"/>
        </g>
      </g>
      <g>
        <path class="cls-1" d="M244.46,161.95v-27.65h-9.07c-1.14,0-1.77-.56-1.77-1.56v-.25c0-1,.63-1.56,1.77-1.56h22.23c1.14,0,1.77.56,1.77,1.56v.25c0,1-.63,1.56-1.77,1.56h-9.02v27.65c0,1-.63,1.56-1.77,1.56h-.58c-1.14,0-1.78-.56-1.78-1.56Z"/>
        <path class="cls-1" d="M273.98,161.95v-29.46c0-1,.64-1.56,1.78-1.56h.58c1.14,0,1.77.56,1.77,1.56v12.82h20.33v-12.82c0-1,.63-1.56,1.77-1.56h.58c1.14,0,1.78.56,1.78,1.56v29.46c0,1-.64,1.56-1.78,1.56h-.58c-1.14,0-1.77-.56-1.77-1.56v-13.39h-20.33v13.39c0,1-.63,1.56-1.77,1.56h-.58c-1.14,0-1.78-.56-1.78-1.56Z"/>
        <path class="cls-1" d="M321.79,163.52c-1.14,0-1.78-.56-1.78-1.56v-29.46c0-1,.64-1.56,1.78-1.56h20.27c1.14,0,1.77.56,1.77,1.56v.25c0,1-.64,1.56-1.77,1.56h-17.92v11.01h17c1.14,0,1.77.56,1.77,1.56v.15c0,1-.63,1.54-1.77,1.54h-17v11.59h17.92c1.14,0,1.77.56,1.77,1.56v.24c0,1-.64,1.56-1.77,1.56h-20.27Z"/>
        <path class="cls-1" d="M386.13,161.61c.95,1.21.59,1.91-1.11,1.91h-.98c-.95,0-1.61-.33-2.14-1l-8.81-10.74c-.87.04-1.78.06-2.73.06h-6.2v10.12c0,1-.63,1.56-1.77,1.56h-.61c-1.14,0-1.77-.56-1.77-1.56v-29.46c0-1,.63-1.56,1.77-1.56h8.63c11.1,0,16.74,2.43,16.74,10.4,0,5.91-3.33,8.87-9.63,9.97l8.61,10.3h0ZM382.98,141.45c0-6.03-4.59-7.27-12.66-7.27h-6.2v14.47h6.2c8.07,0,12.66-1.17,12.66-7.2Z"/>
        <path class="cls-1" d="M431.64,163.52h-.74c-.95,0-1.62-.42-2.01-1.21l-2.82-6.01h-19.87l-2.81,6.01c-.36.8-1.05,1.21-2.01,1.21h-.69c-1.29,0-1.83-.75-1.34-1.82l14.24-29.55c.39-.82,1.05-1.21,2.01-1.21h1.04c.95,0,1.62.39,2.01,1.21l14.27,29.55c.49,1.07-.03,1.82-1.29,1.82ZM416.13,135.05l-8.49,18.17h16.99l-8.5-18.17Z"/>
        <path class="cls-1" d="M448.22,163.52c-1.14,0-1.77-.56-1.77-1.56v-29.46c0-1,.63-1.56,1.77-1.56h7.63c11.43,0,17.28,2.43,17.28,10.79s-5.86,10.79-17.26,10.79h-5.3v9.45c0,1-.63,1.56-1.77,1.56h-.58ZM468.95,141.67c0-6.08-4.57-7.42-12.63-7.42h-5.74v14.86h5.74c8.07,0,12.63-1.34,12.63-7.44Z"/>
        <path class="cls-1" d="M496.21,161.95v-7.76l-14.23-21.4c-.69-1.07-.21-1.87,1.14-1.87h.97c.95,0,1.62.33,2.09,1.07l12.1,18.39,12.25-18.39c.48-.74,1.14-1.07,2.09-1.07h.91c1.38,0,1.91.82,1.22,1.87l-14.41,21.4v7.76c0,1-.64,1.56-1.78,1.56h-.58c-1.14,0-1.77-.56-1.77-1.56Z"/>
      </g>
    </g>
  </g>
</svg>