<?xml version="1.0" encoding="UTF-8"?>
<svg id="Layer_2" data-name="Layer 2" xmlns="http://www.w3.org/2000/svg" viewBox="0 0 827.75 169.51">
  <defs>
    <style>
      .cls-1 {
        fill: #978c87;
      }

      .cls-2 {
        fill: #cbc4bc;
      }
    </style>
  </defs>
  <g id="Layer_1-2" data-name="Layer 1">
    <g>
      <g>
        <g>
          <g>
            <path class="cls-1" d="M539.27,55.31c0,24.71,17.65,43.34,41.1,43.34,11.29,0,20.4-3.76,27.84-11.6.82-.84,2.14-.84,2.92,0l4.8,5.18c.86.93.86,2.48,0,3.41-8.7,9.61-21.47,14.88-36.01,14.88-30.01,0-52.63-23.73-52.63-55.21S549.49.1,580.08.1c14.49,0,27.22,5.22,35.84,14.74.86.93.86,2.48,0,3.41l-4.8,5.14c-.78.89-2.05.89-2.92.04-7.47-7.75-16.59-11.47-27.84-11.47-23.44,0-41.1,18.64-41.1,43.35Z"/>
            <path class="cls-1" d="M693.69,33.55h-6.98c-1.25,0-2.2.99-2.2,2.24v8.55c0,.35-.25.48-.33.48-.08.04-.37.13-.62-.17-6.15-7.51-15.28-11.66-25.66-11.66-21.3,0-36.79,16.27-36.79,38.68s15.49,38.85,36.79,38.85c10.71,0,19.97-4.32,26.08-12.17.21-.3.5-.22.58-.22.12.04.33.17.33.52v8.89c0,1.25,1,2.29,2.2,2.29h6.6c1.2,0,2.2-1.04,2.2-2.29V35.8c0-1.25-1-2.24-2.2-2.24ZM658.73,99.86c-15.36,0-26.08-11.57-26.08-28.19s10.71-28.19,26.08-28.19,25.91,11.61,25.91,28.19-10.67,28.19-25.91,28.19Z"/>
            <path class="cls-1" d="M751.36,36.01v9.19h-.87c-.52,0-1-.04-1.48-.09-.39-.04-.74-.09-1.09-.09-16.29,0-25.62,9.71-25.62,26.63v36.56c0,1.25-1.09,2.29-2.39,2.29h-7.64c-1.3,0-2.35-1.04-2.35-2.29V35.97c0-1.25,1.04-2.29,2.35-2.29h7.21c1.3,0,2.35,1.04,2.35,2.29v8.59c0,.3.22.43.39.52.22.09.57.04.78-.26,5.52-7.08,14.2-10.79,25.88-11.14.69,0,1.3.26,1.74.69.48.43.74,1.04.74,1.64Z"/>
            <path class="cls-1" d="M791.92,32.99c-20.88,0-36.04,16.27-36.04,38.68s15.88,38.85,38.68,38.85c11.26,0,21.09-4.1,27.64-11.53.76-.86.76-2.16,0-3.07l-3.7-4.36c-.42-.47-.97-.78-1.55-.78-.55-.04-1.26.22-1.68.69-5.17,5.48-12.22,8.37-20.45,8.37-14.95,0-25.71-9.24-27.39-23.57-.04-.22.08-.35.13-.43.13-.13.25-.22.42-.22h59.64v-.86c0-.56,0-1.17.04-1.73.04-.47.08-.95.08-1.38,0-22.79-14.74-38.68-35.83-38.68ZM816.45,66.23c-.13.13-.29.17-.42.17h-48.01c-.17,0-.34-.04-.42-.17-.08-.09-.17-.22-.17-.43,1.81-13.43,11.63-22.45,24.49-22.45s22.85,9.02,24.65,22.45c.04.22-.08.35-.13.43Z"/>
          </g>
          <g>
            <path class="cls-1" d="M335.24,11.05c-.32-.52-.65-.98-1.02-1.45-.57-.84-1.22-1.68-1.7-2.56-.42-.7-.8-1.41-1.17-2.16-.17-.36-.37-.75-.55-1.16-.05-.18-.32-.75-.37-.93l-1.02-2.77-1.27,3.36c-.85,2.2-2.14,4.11-3.54,6.13-.52.75-1,1.5-1.5,2.25-1.55,2.43-3.42,6.02-1.6,9.62,1.35,2.79,4.39,4.52,7.91,4.52h.27c3.64-.09,6.69-2,7.91-4.95,1.5-3.54-.37-6.99-2.34-9.9ZM327.83,24.33c-.87.36-3.52-.98-4.81-3.54-1.27-2.54-.72-5.33.17-5.72.87-.36.1,2.61,1.37,5.18,1.3,2.54,4.17,3.7,3.27,4.09Z"/>
            <path class="cls-1" d="M335.61,40.86v68.7c0,.53-.43.95-.96.95h-10.41c-.53,0-.96-.43-.96-.95V40.46c0-3.41,2.78-6.22,6.26-6.22,3.46,0,6.08,3.18,6.08,6.62Z"/>
            <path class="cls-1" d="M312.76,88.07c.04,5.18-1.82,9.84-5.38,13.47-5.69,5.74-15.29,8.85-27.75,8.98h-.56c-11.81,0-23.97-3.28-31.09-8.37-.96-.65-1.22-1.94-.61-2.94l3.26-5.53c.35-.56.87-.95,1.48-1.08.61-.17,1.35-.04,1.91.3,6.82,4.45,16.85,7.21,26.27,7.08,6.99-.04,12.29-1.21,15.68-3.32,3-1.9,4.47-4.66,4.43-8.16-.04-7.99-9.73-9.54-20.93-11.31-14.2-2.29-30.27-4.83-30.44-21.84-.09-6.48,2.78-12,8.25-15.97,5.65-4.14,13.77-6.35,23.54-6.43h.52c9.6,0,20.02,2.37,26.66,6.09,1.09.6,1.48,1.99.83,3.07l-3.13,5.61c-.3.52-.82.91-1.39,1.08-.65.17-1.35.09-1.91-.26-5.86-3.41-13.16-5.22-21.02-5.22h-.48c-7.86.09-13.72,1.81-16.85,4.96-1.78,1.81-2.69,4.06-2.65,6.69.09,8.42,10.03,10.06,21.58,11.96,13.9,2.29,29.62,4.88,29.79,21.15Z"/>
            <path class="cls-1" d="M386.89,32.95c-23.76,0-41,16.27-41,38.72s17.24,38.85,41,38.85,40.87-16.36,40.87-38.85-17.2-38.72-40.87-38.72ZM386.89,99.86c-16.76,0-28.49-11.61-28.49-28.19s11.73-28.19,28.49-28.19,28.36,11.57,28.36,28.19-11.68,28.19-28.36,28.19Z"/>
            <path class="cls-1" d="M99.14,66.4v41.83c0,1.25-1.04,2.29-2.3,2.29h-7.21c-1.26,0-2.26-1.04-2.26-2.29v-40.84c0-15.02-7.43-22.92-21.5-22.92-15.72,0-25.14,9.71-25.14,26.07v37.69c0,1.25-1,2.29-2.26,2.29h-7.21c-1.26,0-2.3-1.04-2.3-2.29V36.49c0-1.25,1.04-2.24,2.3-2.24h6.77c1.26,0,2.3.99,2.3,2.24v7.94c0,.35.22.47.3.52.09.04.39.09.61-.22,5.95-7.12,15.33-11.05,26.45-11.05,19.67,0,31.44,12.22,31.44,32.72Z"/>
            <path class="cls-1" d="M14.28,6.54v101.54c0,1.35-1.09,2.44-2.39,2.44H3.82c-1.3,0-2.34-1.09-2.34-2.4V6.54C1.47,2.96,4.34,0,7.9,0s6.38,2.92,6.38,6.54Z"/>
            <path class="cls-1" d="M156.49,10.05c-.55,1.7-2.34,3.49-3.11,4.66-1.4,2.13-2.81,1.28-4.72.41-1.21-.55-2.52-.85-3.84-.99-3.58-.38-8.57-.41-11,2.72-2.16,2.77-2.06,6.91-2.06,10.21v7.31c0,.3.26.56.61.56h21.28c1.3,0,2.35.98,2.35,2.22v5.65c0,1.24-1.04,2.27-2.35,2.27h-20.97c-.35,0-.61.21-.61.51v62.67c0,1.24-1.09,2.27-2.39,2.27h-7.64c-1.3,0-2.35-1.03-2.35-2.27v-62.67c0-.3-.3-.51-.61-.51h-11.12c-1.3,0-2.35-1.03-2.35-2.27v-5.65c0-1.24,1.04-2.22,2.35-2.22h11.12c.3,0,.61-.26.61-.56v-7.74c0-6.71,1.39-14.18,7-18.61,2.73-2.15,6.11-3.3,9.54-3.8,5.55-.82,11.27-.49,16.56,1.45,1.91.7,4.48,1.95,3.7,4.38Z"/>
            <path class="cls-1" d="M236.24,35.92v71.74c0,1.25-1,2.24-2.26,2.24h-6.77c-1.26,0-2.3-.99-2.3-2.24v-7.94c0-.35-.22-.47-.35-.52-.09,0-.35-.09-.61.22-5.91,7.12-15.33,11.09-26.45,11.09-19.67,0-31.4-12.26-31.4-32.76v-41.83c0-1.25,1-2.24,2.26-2.24h7.25c1.26,0,2.26.99,2.26,2.24v40.84c0,15.02,7.43,22.92,21.45,22.92,15.76,0,25.14-9.71,25.14-26.03v-37.73c0-1.25,1.04-2.24,2.3-2.24h7.21c1.26,0,2.26.99,2.26,2.24Z"/>
            <path class="cls-1" d="M506.8,66.4v41.83c0,1.25-1.04,2.29-2.3,2.29h-7.21c-1.26,0-2.26-1.04-2.26-2.29v-40.84c0-15.02-7.43-22.92-21.5-22.92-15.72,0-25.1,9.71-25.1,26.07v37.69c0,1.25-1.04,2.29-2.3,2.29h-7.21c-1.26,0-2.3-1.04-2.3-2.29V36.49c0-1.25,1.04-2.24,2.3-2.24h6.77c1.26,0,2.3.99,2.3,2.24v7.94c0,.35.22.47.35.52.04.04.35.09.61-.22,5.91-7.12,15.33-11.05,26.45-11.05,19.67,0,31.4,12.22,31.4,32.72Z"/>
          </g>
        </g>
        <g>
          <path class="cls-1" d="M550.01,167.9v-28.38h-9.31c-1.17,0-1.82-.58-1.82-1.6v-.25c0-1.03.65-1.6,1.82-1.6h22.81c1.17,0,1.82.58,1.82,1.6v.25c0,1.03-.65,1.6-1.82,1.6h-9.26v28.38c0,1.03-.65,1.6-1.82,1.6h-.6c-1.17,0-1.82-.58-1.82-1.6Z"/>
          <path class="cls-1" d="M580.31,167.9v-30.24c0-1.03.65-1.6,1.82-1.6h.6c1.17,0,1.82.58,1.82,1.6v13.16h20.87v-13.16c0-1.03.65-1.6,1.82-1.6h.6c1.17,0,1.82.58,1.82,1.6v30.24c0,1.03-.65,1.6-1.82,1.6h-.6c-1.17,0-1.82-.58-1.82-1.6v-13.75h-20.87v13.75c0,1.03-.65,1.6-1.82,1.6h-.6c-1.17,0-1.82-.58-1.82-1.6Z"/>
          <path class="cls-1" d="M629.39,169.51c-1.17,0-1.82-.57-1.82-1.6v-30.24c0-1.03.65-1.6,1.82-1.6h20.81c1.17,0,1.82.58,1.82,1.6v.25c0,1.03-.65,1.6-1.82,1.6h-18.39v11.3h17.45c1.17,0,1.82.57,1.82,1.6v.15c0,1.03-.65,1.58-1.82,1.58h-17.45v11.89h18.39c1.17,0,1.82.58,1.82,1.6v.25c0,1.03-.65,1.6-1.82,1.6h-20.81Z"/>
          <path class="cls-1" d="M695.42,167.55c.98,1.25.6,1.96-1.14,1.96h-1.01c-.98,0-1.66-.34-2.2-1.03l-9.05-11.02c-.89.04-1.83.06-2.8.06h-6.36v10.39c0,1.03-.65,1.6-1.82,1.6h-.62c-1.17,0-1.82-.58-1.82-1.6v-30.24c0-1.03.65-1.6,1.82-1.6h8.86c11.39,0,17.18,2.49,17.18,10.68,0,6.07-3.42,9.11-9.88,10.24l8.84,10.57h0ZM692.19,146.86c0-6.19-4.72-7.46-13-7.46h-6.36v14.86h6.36c8.28,0,13-1.2,13-7.39Z"/>
          <path class="cls-1" d="M742.14,169.51h-.76c-.98,0-1.66-.43-2.06-1.24l-2.89-6.17h-20.4l-2.88,6.17c-.37.82-1.08,1.24-2.06,1.24h-.7c-1.32,0-1.88-.77-1.37-1.87l14.62-30.33c.4-.84,1.08-1.24,2.06-1.24h1.07c.98,0,1.66.4,2.06,1.24l14.65,30.33c.5,1.1-.03,1.87-1.32,1.87ZM726.22,140.28l-8.71,18.65h17.44l-8.73-18.65Z"/>
          <path class="cls-1" d="M759.15,169.51c-1.17,0-1.82-.57-1.82-1.6v-30.24c0-1.03.65-1.6,1.82-1.6h7.83c11.73,0,17.74,2.49,17.74,11.07s-6.01,11.07-17.71,11.07h-5.44v9.69c0,1.03-.65,1.6-1.82,1.6h-.6ZM780.43,147.08c0-6.24-4.69-7.61-12.97-7.61h-5.89v15.25h5.89c8.28,0,12.97-1.37,12.97-7.64Z"/>
          <path class="cls-1" d="M808.42,167.9v-7.97l-14.61-21.96c-.71-1.1-.22-1.91,1.17-1.91h1c.98,0,1.66.34,2.15,1.1l12.42,18.88,12.57-18.88c.49-.76,1.17-1.1,2.15-1.1h.94c1.41,0,1.96.84,1.25,1.91l-14.79,21.96v7.97c0,1.03-.65,1.6-1.82,1.6h-.6c-1.17,0-1.82-.58-1.82-1.6Z"/>
        </g>
      </g>
      <path class="cls-2" d="M509.64,151.26H22.12c-6.59,0-13.21-.14-19.8,0-.28,0-.56,0-.84,0-1.97,0-1.98,3.05,0,3.05h487.52c6.59,0,13.21.14,19.8,0,.28,0,.56,0,.84,0,1.97,0,1.98-3.05,0-3.05h0Z"/>
    </g>
  </g>
</svg>