<?xml version="1.0" encoding="UTF-8"?>
<svg id="Layer_2" data-name="Layer 2" xmlns="http://www.w3.org/2000/svg" viewBox="0 0 172.39 103.22">
  <defs>
    <style>
      .cls-1 {
        fill: #85cacf;
      }

      .cls-2, .cls-3 {
        fill: #7a99ac;
      }

      .cls-4 {
        fill: #b5e1e3;
      }

      .cls-5 {
        fill: #fff;
      }

      .cls-3 {
        opacity: .55;
      }
    </style>
  </defs>
  <g id="Layer_1-2" data-name="Layer 1">
    <g>
      <polygon class="cls-4" points="146.32 102.48 146.33 102.48 95.76 84.91 146.32 102.48"/>
      <polygon class="cls-4" points="171.66 62.91 171.66 62.9 163.82 85.45 171.66 62.91"/>
      <polygon class="cls-4" points="12.15 7.48 8.27 18.63 12.15 7.48 12.15 7.48"/>
      <path class="cls-3" d="M163.99,53.07L24.26,4.51c-1.59-.55-3.3-.45-4.82.28-1.52.73-2.66,2.02-3.21,3.61L4.51,42.12c-.55,1.59-.45,3.3.28,4.82.73,1.52,2.02,2.66,3.61,3.21l139.73,48.56c1.59.55,3.3.45,4.82-.28,1.52-.73,2.66-2.02,3.21-3.61l11.72-33.72c.55-1.59.45-3.3-.28-4.82-.73-1.52-2.02-2.66-3.61-3.21ZM16.42,43.92c-.68,1.97-2.83,3.01-4.8,2.32-1.97-.68-3.01-2.83-2.32-4.8.68-1.97,2.83-3.01,4.8-2.32,1.97.68,3.01,2.83,2.32,4.8ZM21.37,29.68c-.68,1.97-2.83,3.01-4.8,2.32-1.97-.68-3.01-2.83-2.32-4.8.68-1.97,2.83-3.01,4.8-2.32,1.97.68,3.01,2.83,2.32,4.8ZM21.89,16.69c-1.97-.68-3.01-2.83-2.32-4.8.68-1.97,2.83-3.01,4.8-2.32,1.97.68,3.01,2.83,2.32,4.8-.68,1.97-2.83,3.01-4.8,2.32ZM32.08,49.36c-.68,1.97-2.83,3.01-4.8,2.32-1.97-.68-3.01-2.83-2.32-4.8s2.83-3.01,4.8-2.32c1.97.68,3.01,2.83,2.32,4.8ZM37.03,35.12c-.68,1.97-2.83,3.01-4.8,2.32-1.97-.68-3.01-2.83-2.32-4.8.68-1.97,2.83-3.01,4.8-2.32,1.97.68,3.01,2.83,2.32,4.8ZM37.55,22.14c-1.97-.68-3.01-2.83-2.32-4.8.68-1.97,2.83-3.01,4.8-2.32,1.97.68,3.01,2.83,2.32,4.8-.68,1.97-2.83,3.01-4.8,2.32ZM47.21,54.62c-.68,1.97-2.83,3.01-4.8,2.32-1.97-.68-3.01-2.83-2.32-4.8.68-1.97,2.83-3.01,4.8-2.32,1.97.68,3.01,2.83,2.32,4.8ZM52.16,40.38c-.68,1.97-2.83,3.01-4.8,2.32-1.97-.68-3.01-2.83-2.32-4.8.68-1.97,2.83-3.01,4.8-2.32,1.97.68,3.01,2.83,2.32,4.8ZM52.68,27.4c-1.97-.68-3.01-2.83-2.32-4.8.68-1.97,2.83-3.01,4.8-2.32,1.97.68,3.01,2.83,2.32,4.8-.68,1.97-2.83,3.01-4.8,2.32ZM57.39,59.19h0,0l10.91-31.38h0s46.71,16.23,46.71,16.23h0s-5.98,17.21-5.98,17.21l-4.92,14.17-46.71-16.23ZM122.03,80.62c-.68,1.97-2.83,3.01-4.8,2.32-1.97-.68-3.01-2.83-2.32-4.8.68-1.97,2.83-3.01,4.8-2.32,1.97.68,3.01,2.83,2.32,4.8ZM126.98,66.38c-.68,1.97-2.83,3.01-4.8,2.32-1.97-.68-3.01-2.83-2.32-4.8.68-1.97,2.83-3.01,4.8-2.32,1.97.68,3.01,2.83,2.32,4.8ZM127.5,53.4c-1.97-.68-3.01-2.83-2.32-4.8.68-1.97,2.83-3.01,4.8-2.32,1.97.68,3.01,2.83,2.32,4.8-.68,1.97-2.83,3.01-4.8,2.32ZM137.7,86.06c-.68,1.97-2.83,3.01-4.8,2.32-1.97-.68-3.01-2.83-2.32-4.8.68-1.97,2.83-3.01,4.8-2.32,1.97.68,3.01,2.83,2.32,4.8ZM142.64,71.82c-.68,1.97-2.83,3.01-4.8,2.32-1.97-.68-3.01-2.83-2.32-4.8.68-1.97,2.83-3.01,4.8-2.32,1.97.68,3.01,2.83,2.32,4.8ZM143.17,58.84c-1.97-.68-3.01-2.83-2.32-4.8.68-1.97,2.83-3.01,4.8-2.32,1.97.68,3.01,2.83,2.32,4.8-.68,1.97-2.83,3.01-4.8,2.32ZM152.83,91.32c-.68,1.97-2.83,3.01-4.8,2.32-1.97-.68-3.01-2.83-2.32-4.8.68-1.97,2.83-3.01,4.8-2.32,1.97.68,3.01,2.83,2.32,4.8ZM157.77,77.08c-.68,1.97-2.83,3.01-4.8,2.32-1.97-.68-3.01-2.83-2.32-4.8.68-1.97,2.83-3.01,4.8-2.32,1.97.68,3.01,2.83,2.32,4.8ZM163.09,61.77c-.68,1.97-2.83,3.01-4.8,2.32-1.97-.68-3.01-2.83-2.32-4.8.68-1.97,2.83-3.01,4.8-2.32,1.97.68,3.01,2.83,2.32,4.8Z"/>
      <rect class="cls-1" x="91.65" y="11.19" height="49.45" transform="translate(27.64 110.7) rotate(-70.84)"/>
      <polygon class="cls-1" points="104.1 75.42 57.39 59.19 57.39 59.19 104.1 75.42 109.02 61.24 104.1 75.42"/>
      <rect class="cls-2" x="73.74" y="31.05" width="24.91" height="41.13" transform="translate(9.15 116.09) rotate(-70.84)"/>
      <path class="cls-5" d="M109.02,61.24l5.98-17.21h0s-46.71-16.23-46.71-16.23h0s-10.91,31.38-10.91,31.38h0l46.71,16.23,4.93-14.17ZM62.68,56.62l8.17-23.53,38.85,13.5-8.18,23.53-38.85-13.5Z"/>
      <path class="cls-5" d="M132.3,51.07c.68-1.97-.36-4.11-2.32-4.8-1.97-.68-4.11.36-4.8,2.32-.68,1.97.36,4.11,2.32,4.8,1.97.68,4.11-.36,4.8-2.32Z"/>
      <path class="cls-5" d="M124.66,61.58c-1.97-.68-4.11.36-4.8,2.32-.68,1.97.36,4.11,2.32,4.8,1.97.68,4.11-.36,4.8-2.32.68-1.97-.36-4.11-2.32-4.8Z"/>
      <path class="cls-5" d="M119.71,75.82c-1.97-.68-4.11.36-4.8,2.32-.68,1.97.36,4.11,2.32,4.8,1.97.68,4.11-.36,4.8-2.32.68-1.97-.36-4.11-2.32-4.8Z"/>
      <path class="cls-5" d="M147.96,56.52c.68-1.97-.36-4.11-2.32-4.8-1.97-.68-4.11.36-4.8,2.32-.68,1.97.36,4.11,2.32,4.8,1.97.68,4.11-.36,4.8-2.32Z"/>
      <path class="cls-5" d="M140.32,67.03c-1.97-.68-4.11.36-4.8,2.32-.68,1.97.36,4.11,2.32,4.8,1.97.68,4.11-.36,4.8-2.32.68-1.97-.36-4.11-2.32-4.8Z"/>
      <path class="cls-5" d="M135.37,81.27c-1.97-.68-4.11.36-4.8,2.32-.68,1.97.36,4.11,2.32,4.8,1.97.68,4.11-.36,4.8-2.32.68-1.97-.36-4.11-2.32-4.8Z"/>
      <path class="cls-5" d="M160.77,56.98c-1.97-.68-4.11.36-4.8,2.32-.68,1.97.36,4.11,2.32,4.8,1.97.68,4.11-.36,4.8-2.32.68-1.97-.36-4.11-2.32-4.8Z"/>
      <path class="cls-5" d="M155.45,72.28c-1.97-.68-4.11.36-4.8,2.32-.68,1.97.36,4.11,2.32,4.8,1.97.68,4.11-.36,4.8-2.32.68-1.97-.36-4.11-2.32-4.8Z"/>
      <path class="cls-5" d="M150.5,86.52c-1.97-.68-4.11.36-4.8,2.32-.68,1.97.36,4.11,2.32,4.8,1.97.68,4.11-.36,4.8-2.32.68-1.97-.36-4.11-2.32-4.8Z"/>
      <path class="cls-5" d="M26.69,14.37c.68-1.97-.36-4.11-2.32-4.8-1.97-.68-4.11.36-4.8,2.32-.68,1.97.36,4.11,2.32,4.8,1.97.68,4.11-.36,4.8-2.32Z"/>
      <path class="cls-5" d="M19.04,24.88c-1.97-.68-4.11.36-4.8,2.32-.68,1.97.36,4.11,2.32,4.8,1.97.68,4.11-.36,4.8-2.32.68-1.97-.36-4.11-2.32-4.8Z"/>
      <path class="cls-5" d="M14.1,39.12c-1.97-.68-4.11.36-4.8,2.32-.68,1.97.36,4.11,2.32,4.8,1.97.68,4.11-.36,4.8-2.32.68-1.97-.36-4.11-2.32-4.8Z"/>
      <path class="cls-5" d="M42.35,19.81c.68-1.97-.36-4.11-2.32-4.8-1.97-.68-4.11.36-4.8,2.32-.68,1.97.36,4.11,2.32,4.8,1.97.68,4.11-.36,4.8-2.32Z"/>
      <path class="cls-5" d="M34.71,30.33c-1.97-.68-4.11.36-4.8,2.32-.68,1.97.36,4.11,2.32,4.8,1.97.68,4.11-.36,4.8-2.32.68-1.97-.36-4.11-2.32-4.8Z"/>
      <path class="cls-5" d="M29.76,44.57c-1.97-.68-4.11.36-4.8,2.32s.36,4.11,2.32,4.8c1.97.68,4.11-.36,4.8-2.32.68-1.97-.36-4.11-2.32-4.8Z"/>
      <path class="cls-5" d="M55.16,20.28c-1.97-.68-4.11.36-4.8,2.32-.68,1.97.36,4.11,2.32,4.8,1.97.68,4.11-.36,4.8-2.32.68-1.97-.36-4.11-2.32-4.8Z"/>
      <path class="cls-5" d="M49.84,35.58c-1.97-.68-4.11.36-4.8,2.32-.68,1.97.36,4.11,2.32,4.8,1.97.68,4.11-.36,4.8-2.32.68-1.97-.36-4.11-2.32-4.8Z"/>
      <path class="cls-5" d="M44.89,49.82c-1.97-.68-4.11.36-4.8,2.32-.68,1.97.36,4.11,2.32,4.8,1.97.68,4.11-.36,4.8-2.32.68-1.97-.36-4.11-2.32-4.8Z"/>
      <path class="cls-5" d="M171.34,54.47c-1.17-2.41-3.26-4.38-5.99-5.33L25.63.58c-5.46-1.9-11.43.99-13.33,6.45l-.15.44-3.87,11.15L.58,40.75c-.95,2.73-.7,5.59.47,8,1.17,2.41,3.26,4.38,5.99,5.33l88.73,30.83,50.56,17.57.44.15c5.46,1.9,11.43-.99,13.33-6.45l3.73-10.73,7.84-22.55.15-.44c.95-2.73.7-5.59-.47-8ZM167.88,61.1l-11.72,33.72c-.55,1.59-1.69,2.87-3.21,3.61-1.52.73-3.23.83-4.82.28L8.4,50.15c-1.59-.55-2.87-1.69-3.61-3.21-.73-1.52-.83-3.23-.28-4.82L16.23,8.4c.55-1.59,1.69-2.87,3.21-3.61,1.52-.73,3.23-.83,4.82-.28l139.73,48.56c1.59.55,2.87,1.69,3.61,3.21.73,1.52.83,3.23.28,4.82Z"/>
    </g>
  </g>
</svg>