<?xml version="1.0" encoding="UTF-8"?>
<svg id="Layer_2" data-name="Layer 2" xmlns="http://www.w3.org/2000/svg" viewBox="0 0 281.31 270.35">
  <defs>
    <style>
      .cls-1 {
        fill: #d2e1d7;
      }

      .cls-2 {
        fill: #7a99ac;
      }

      .cls-3 {
        fill: #d3dde5;
      }

      .cls-4 {
        fill: #7b99ac;
      }
    </style>
  </defs>
  <g id="Layer_1-2" data-name="Layer 1">
    <g>
      <path class="cls-3" d="M116.14,169.48c25.23-10.76,26.73-48.26,24.08-78.38l-9.52,7.85s1.76,29.44-26.87,41.64c-28.63,12.21-48.65-9.44-48.65-9.44l-12.27,1.43c19.9,22.77,48,47.65,73.23,36.9Z"/>
      <path class="cls-1" d="M23.88,45.71l24.97-10.65c2.44-1.04,3.57-3.85,2.53-6.29l-3.58-8.39c-1.04-2.44-3.85-3.57-6.29-2.53l-24.97,10.65,2.94,6.89,1.05,2.47,3.35,7.86Z"/>
      <path class="cls-1" d="M83.39,0l-24.97,10.65c-2.44,1.04-3.57,3.85-2.53,6.29l3.58,8.39c1.04,2.44,3.85,3.57,6.29,2.53l24.97-10.65-4.08-9.56-.32-.76-2.94-6.89Z"/>
      <path class="cls-2" d="M253.8,198.55l-21.92-51.41c-6.53-15.32-24.32-22.47-39.64-15.94-7.42,3.16-13.17,9.03-16.19,16.51-3.01,7.48-2.92,15.69.25,23.12l25.12,58.91c2.77,6.51,2.85,13.7.21,20.26-2.64,6.56-7.67,11.7-14.18,14.47-6.5,2.77-13.7,2.85-20.25.21-6.56-2.64-11.69-7.67-14.47-14.19l-33.41-78.36c14.82-7.22,23.29-23.66,25.2-48.91,1.68-22.33-2.14-47.54-4.19-61.07-1.2-7.94-3.6-19.71-8.17-30.71-4.97-11.94-11.33-20.14-18.91-24.36-7.86-4.38-16.92-4.45-26.91-.19l.32.76,1.14,2.68c8.87-3.79,16.82-3.78,23.62,0,17.03,9.49,23.3,39.79,25.21,52.37,1.12,7.37,2.64,17.39,3.6,28.39,2.65,30.13,1.15,67.63-24.08,78.38-25.23,10.75-53.32-14.13-73.23-36.9-7.27-8.31-13.44-16.34-17.99-22.25C17.17,100.23-.35,74.73,4.59,55.87c1.97-7.53,7.47-13.27,16.35-17.05l-.41-.97-1.05-2.47C9.48,39.64,3.26,46.22.98,54.93c-2.2,8.4-.69,18.67,4.49,30.51,4.77,10.92,11.6,20.8,16.5,27.16,8.35,10.86,23.89,31.06,41.16,45.31,14.06,11.59,27.18,17.58,39.2,17.9,4.69.13,9.21-.61,13.55-2.21l33.41,78.36c3.17,7.43,9.03,13.18,16.51,16.19,3.39,1.36,6.92,2.09,10.47,2.19,4.28.12,8.58-.69,12.64-2.43,7.42-3.16,13.17-9.03,16.18-16.52,3.01-7.49,2.93-15.7-.24-23.12l-25.12-58.91c-2.78-6.51-2.85-13.71-.22-20.26,2.65-6.56,7.69-11.7,14.19-14.47,6.51-2.77,13.7-2.85,20.26-.21,6.56,2.64,11.7,7.67,14.47,14.18l21.92,51.41c.55-.29,1.11-.57,1.68-.81.58-.25,1.17-.46,1.75-.65Z"/>
      <path class="cls-4" d="M279.62,210.29c-4.31-10.1-15.58-15.08-25.82-11.74-.59.19-1.17.41-1.75.65-.58.25-1.14.52-1.68.81-9.5,5.08-13.71,16.67-9.41,26.76,4.55,10.68,16.9,15.64,27.58,11.09,10.68-4.55,15.64-16.9,11.09-27.58ZM264.42,228.24c-5.36,2.29-11.56-.21-13.85-5.57-2.29-5.36.21-11.56,5.57-13.85,5.36-2.29,11.56.21,13.84,5.57,2.29,5.36-.21,11.56-5.57,13.85Z"/>
      <path class="cls-1" d="M256.15,208.83c-5.36,2.29-7.85,8.48-5.57,13.85,2.29,5.36,8.48,7.85,13.85,5.57,5.36-2.29,7.85-8.48,5.57-13.85-2.29-5.36-8.48-7.85-13.84-5.57Z"/>
    </g>
  </g>
</svg>