<?xml version="1.0" encoding="UTF-8"?>
<svg id="Layer_2" data-name="Layer 2" xmlns="http://www.w3.org/2000/svg" viewBox="0 0 214.67 214.67">
  <defs>
    <style>
      .cls-1 {
        fill: #cbc4bc;
      }
    </style>
  </defs>
  <g id="Layer_1-2" data-name="Layer 1">
    <g>
      <path class="cls-1" d="M100.65,150.67c-3.63,1.41-14.69-3.65-20.1-13.44-.19-.35-.38-.7-.54-1.06-.41-.81-.73-1.6-1.03-2.41-3.22-8.63-1.05-17.07,2.3-18.39,2.41-.87,1.79,3.87,2.68,10.01.35,2.33.92,4.9,1.95,7.41.32.78.68,1.57,1.11,2.33,5.41,9.71,17.34,14.07,13.63,15.55Z"/>
      <path class="cls-1" d="M214.67,76.88v60.92c0,8.17-6.6,14.77-14.77,14.77h-47.34v47.34c0,8.17-6.6,14.77-14.77,14.77h-60.92c-8.14,0-14.77-6.6-14.77-14.77,0-20.99,4.71-40.9,13.09-58.7,6.09,9.6,18.15,15.42,32,15.42h1.11c15.26-.35,27.94-7.6,33.03-18.8,6.3-13.53-1.54-26.64-9.76-37.74-1.38-2-2.76-3.68-4.27-5.49-.03-.05-.08-.08-.11-.14-1.95-2.6-4.03-5.14-5.82-7.79-.41-.62-.81-1.24-1.19-1.87-1.79-2.71-3.3-5.33-4.84-8.22-.73-1.38-1.62-2.87-2.33-4.36-.16-.7-1.3-2.89-1.54-3.6l-4.27-10.55-5.33,12.82c-3.57,8.39-8.98,15.66-14.77,23.34-2.19,2.87-4.22,5.68-6.22,8.55-6.44,9.22-14.2,22.78-6.82,36.41-17.96,8.57-38.06,13.36-59.29,13.36-4.09,0-7.76-1.65-10.44-4.33-2.68-2.68-4.33-6.36-4.33-10.44v-60.92c0-8.14,6.6-14.77,14.77-14.77h47.34V14.77c0-8.14,6.6-14.77,14.77-14.77h60.92c8.17,0,14.77,6.63,14.77,14.77,0,22.34-5.3,43.42-14.74,62.08,18.64-9.44,39.74-14.74,62.08-14.74,4.08,0,7.76,1.65,10.44,4.33,2.68,2.68,4.33,6.36,4.33,10.44Z"/>
    </g>
  </g>
</svg>