<?xml version="1.0" encoding="UTF-8"?>
<svg id="Layer_2" data-name="Layer 2" xmlns="http://www.w3.org/2000/svg" viewBox="0 0 88.68 138.79">
  <defs>
    <style>
      .cls-1 {
        opacity: .55;
      }

      .cls-1, .cls-2 {
        fill: #cbc4bc;
      }
    </style>
  </defs>
  <g id="Layer_1-2" data-name="Layer 1">
    <g>
      <path class="cls-2" d="M45.49.01C21.04-.59.64,19.74,0,45.33c-.61,24.6,42.03,93.47,42.03,93.47,0,0,46.01-66.67,46.63-91.25C89.3,21.94,69.93.62,45.49.01ZM43.53,78.88c-10.23-.25-19.27-5.08-25.22-12.47l-.44-.55c-.51-.67-1-1.36-1.48-2.07-.61-.94-1.19-1.91-1.7-2.92-.05-.09-.11-.18-.16-.28-2.31-4.54-3.62-9.69-3.62-15.11,0-.29,0-.57.01-.86.32-12.69,7.67-23.55,18.22-28.95,2.89-1.48,6-2.55,9.29-3.13,2.18-.4,4.45-.57,6.74-.51,1,.03,1.99.11,2.97.21.25.03.5.05.74.09,2.7.37,5.29,1.04,7.75,2.01.01.01.04.03.05.03.95.38,1.87.81,2.77,1.25,2.23,1.13,4.32,2.51,6.22,4.09.28.22.55.46.82.7,7.14,6.31,11.55,15.61,11.3,25.88-.46,18.46-15.81,33.06-34.27,32.59Z"/>
      <path class="cls-1" d="M45.11,15.69c-16.42-.41-30.11,12.62-30.52,29.03-.41,16.42,12.61,30.1,29.03,30.51,16.42.41,30.11-12.6,30.52-29.03.41-16.42-12.62-30.1-29.03-30.51ZM64.03,52.64l-13.16-.33-.33,13.16-13.35-.33.33-13.16-13.17-.33.34-13.35,13.16.33.33-13.17,13.35.34-.33,13.16,13.16.33-.33,13.35Z"/>
      <polygon class="cls-2" points="64.36 39.28 64.03 52.64 50.88 52.31 50.55 65.46 37.19 65.13 37.52 51.98 24.35 51.65 24.7 38.29 37.85 38.62 38.18 25.45 51.54 25.8 51.21 38.95 64.36 39.28"/>
    </g>
  </g>
</svg>