<?xml version="1.0" encoding="UTF-8"?>
<svg id="Layer_2" data-name="Layer 2" xmlns="http://www.w3.org/2000/svg" viewBox="0 0 144.1 221.1">
  <defs>
    <style>
      .cls-1, .cls-2 {
        fill: #7a99ac;
      }

      .cls-2 {
        opacity: .55;
      }
    </style>
  </defs>
  <g id="Layer_1-2" data-name="Layer 1">
    <g>
      <path class="cls-2" d="M99.56,135.56c-8.57,11.93-18.02,23.45-27.44,34.01,0,0,0,0,0,0,22,23.4,54.82,50.09,54.82,50.09l17.17-54.79s-25.62-15.67-44.55-29.33Z"/>
      <path class="cls-2" d="M36.57,38.98c-.4.31-.77.6-1.12.89,2.97-2.31,6.56-4.11,9.65-5.5,4.65-2.09,9.82-3.43,14.85-4.25,9.06-1.49,18.43-1.08,27.33,1.17,4.45,1.12,8.78,2.7,12.9,4.73,1.91.94,3.76,1.91,5.39,3.26.22.19.61.47,1.07.81-.04-.04-.08-.08-.12-.11-.22-.21-.46-.41-.71-.62-.49-.41-1.04-.83-1.64-1.26-.23-.17-.48-.35-.73-.51-3.45-16.46-16.38-29.94-25.78-37.28-5.18-.42-10.38-.39-15.55.18-9.21,7.58-21.81,21.41-24.82,37.98-.24.17-.49.36-.71.53Z"/>
      <polygon class="cls-1" points="109.99 43.82 109.99 43.81 109.99 43.81 109.99 43.82"/>
      <path class="cls-1" d="M87.71,2.3c-.29-.26-.6-.53-.91-.78-.39-.08-.78-.14-1.17-.21.38.07.76.13,1.14.21,1.69,1.43,3.27,2.88,4.76,4.32-.65-.64-1.31-1.28-1.97-1.89,0,0,0,0,0,0-.59-.54-1.21-1.1-1.84-1.64Z"/>
      <path class="cls-1" d="M109.9,41.2c-.04-.48-.13-.95-.19-1.43.05.39.09.79.11,1.19.04.44.07.87.09,1.32.04.42.05.84.06,1.26.01.04,0,.09,0,.13,0,.04.01.08.01.12,0-.05,0-.09.01-.14,0-.11,0-.22.01-.33-.03-.7-.06-1.42-.12-2.12,0,0,0,0,0,0Z"/>
      <path class="cls-2" d="M57.69,125.18c1.58-1.32,3.12-2.69,4.69-4.06.73-.64,1.48-1.26,2.21-1.91.39-.36.77-.73,1.17-1.07,1.88-1.71,3.75-3.42,5.6-5.17-2.06-1.87-4.09-3.76-6.06-5.69-.67-.63-1.32-1.28-1.97-1.93-5.21-5.18-10.06-10.57-14.35-16.1-1.07-1.39-2.1-2.79-3.1-4.18-3.65-5.13-6.77-10.35-9.2-15.68-.57-1.23-1.1-2.48-1.6-3.71-2.6-6.6-4.1-13.3-4.19-20.05v-.74s-.01-.21-.01-.21l.02-.02c0-.44,0-.87.03-1.32.01-.44.04-.87.06-1.32,0-.44.05-.89.09-1.32.04-.44.08-.87.14-1.32,1.43-12.53,8.06-25.13,21.77-37.4-.02,0-.05.02-.06.02-1.05.37-2.07.75-3.08,1.14-.53.19-1.07.4-1.58.62C-16.05,29.31,5.93,86.59,43.77,136.29c4.4-3.35,8.88-6.9,13.32-10.62.2-.17.39-.33.61-.5Z"/>
      <path class="cls-1" d="M99.56,135.56s0,0,0,0c35.9-49.89,56.28-106.67-4.91-131.2-.61-.25-1.23-.49-1.86-.74-1.68-.64-3.43-1.26-5.23-1.84-.25-.09-.51-.16-.75-.25.31.26.62.53.91.78.64.54,1.26,1.1,1.84,1.64,0,0,0,0,0,0,.34.32.68.62,1.01.93.4.38.79.75,1.18,1.13,1.53,1.5,2.98,3.01,4.3,4.52.67.77,1.31,1.53,1.91,2.29.31.38.61.77.9,1.15.3.38.58.76.86,1.14.28.39.56.77.83,1.15,1.08,1.53,2.05,3.07,2.93,4.62.22.38.44.78.64,1.16.1.17.19.34.27.5.17.33.35.65.5.99.91,1.83,1.7,3.65,2.35,5.48.14.4.27.78.4,1.17.16.5.28.99.43,1.48.06.19.11.38.17.58.14.48.3.96.42,1.45.19.78.37,1.56.52,2.34.16.78.28,1.56.4,2.34.14.95.24,1.89.33,2.84,0,0,0,0,0,0,.06.7.09,1.41.12,2.12,0,.11.01.22.02.33v.23c.02.95.03,1.9,0,2.86-.01.28-.04.55-.05.83-1.1,23-18.07,45.79-38.62,65.39-1.85,1.75-3.72,3.46-5.6,5.17-.39.34-.77.71-1.17,1.07-.73.65-1.48,1.28-2.21,1.91-1.57,1.37-3.12,2.74-4.69,4.06-.21.17-.41.33-.61.5-4.44,3.72-8.92,7.27-13.32,10.62C25.2,150.49,0,166.79,0,166.79l18.62,54.31s32.1-27.54,53.48-51.52c0,0,0,0,0,0,9.43-10.57,18.87-22.08,27.44-34.01Z"/>
    </g>
  </g>
</svg>