<?xml version="1.0" encoding="UTF-8"?>
<svg id="Layer_2" data-name="Layer 2" xmlns="http://www.w3.org/2000/svg" viewBox="0 0 813.81 138.37">
  <defs>
    <style>
      .cls-1 {
        fill: #7a99ac;
      }
    </style>
  </defs>
  <g id="Layer_1-2" data-name="Layer 1">
    <g>
      <g>
        <path class="cls-1" d="M61.34,91.82c-2.21.86-8.95-2.23-12.25-8.19-.12-.21-.23-.43-.33-.64-.25-.49-.45-.97-.63-1.47-1.96-5.26-.64-10.4,1.4-11.21,1.47-.53,1.09,2.36,1.63,6.1.21,1.42.56,2.98,1.19,4.52.2.48.41.96.68,1.42,3.3,5.92,10.57,8.57,8.31,9.48Z"/>
        <path class="cls-1" d="M130.82,46.85v37.12c0,4.98-4.02,9-9,9h-28.85v28.85c0,4.98-4.02,9-9,9h-37.12c-4.96,0-9-4.02-9-9,0-12.79,2.87-24.92,7.98-35.77,3.71,5.85,11.06,9.4,19.5,9.4h.68c9.3-.21,17.03-4.63,20.13-11.46,3.84-8.24-.94-16.24-5.95-23-.84-1.22-1.68-2.24-2.6-3.35-.02-.03-.05-.05-.07-.08-1.19-1.58-2.46-3.13-3.54-4.75-.25-.38-.49-.76-.72-1.14-1.09-1.65-2.01-3.25-2.95-5.01-.45-.84-.99-1.75-1.42-2.65-.1-.43-.79-1.76-.94-2.19l-2.6-6.43-3.25,7.81c-2.18,5.11-5.47,9.54-9,14.23-1.33,1.75-2.57,3.46-3.79,5.21-3.92,5.62-8.65,13.88-4.15,22.19-10.95,5.23-23.19,8.14-36.13,8.14-2.49,0-4.73-1.01-6.36-2.64-1.63-1.63-2.64-3.87-2.64-6.36v-37.12c0-4.96,4.02-9,9-9h28.85V9c0-4.96,4.02-9,9-9h37.12c4.98,0,9,4.04,9,9,0,13.62-3.23,26.46-8.98,37.83,11.36-5.75,24.22-8.98,37.83-8.98,2.49,0,4.73,1.01,6.36,2.64,1.63,1.63,2.64,3.87,2.64,6.36Z"/>
      </g>
      <g>
        <g>
          <g>
            <g>
              <path class="cls-1" d="M592.34,50.71c0,18.97,13.55,33.28,31.55,33.28,8.67,0,15.66-2.89,21.37-8.91.63-.65,1.64-.65,2.24,0l3.69,3.98c.66.71.66,1.9,0,2.62-6.68,7.38-16.48,11.42-27.64,11.42-23.04,0-40.41-18.22-40.41-42.38s17.05-42.38,40.53-42.38c11.13,0,20.9,4.01,27.52,11.32.66.71.66,1.9,0,2.62l-3.69,3.94c-.6.68-1.58.68-2.24.03-5.74-5.95-12.73-8.8-21.37-8.8-18,0-31.55,14.31-31.55,33.28Z"/>
              <path class="cls-1" d="M710.89,34h-5.36c-.96,0-1.69.76-1.69,1.72v6.56c0,.27-.19.36-.25.36-.06.03-.29.1-.48-.13-4.72-5.77-11.73-8.95-19.7-8.95-16.35,0-28.24,12.49-28.24,29.69s11.89,29.83,28.24,29.83c8.22,0,15.33-3.31,20.02-9.35.16-.23.38-.17.45-.17.1.03.26.13.26.4v6.83c0,.96.76,1.76,1.69,1.76h5.07c.92,0,1.69-.8,1.69-1.76v-55.08c0-.96-.76-1.72-1.69-1.72ZM684.05,84.91c-11.79,0-20.02-8.88-20.02-21.64s8.22-21.64,20.02-21.64,19.89,8.91,19.89,21.64-8.19,21.64-19.89,21.64Z"/>
              <path class="cls-1" d="M755.16,35.89v7.06h-.67c-.4,0-.77-.03-1.13-.07-.3-.03-.57-.07-.83-.07-12.5,0-19.67,7.46-19.67,20.45v28.07c0,.96-.83,1.76-1.83,1.76h-5.87c-1,0-1.8-.8-1.8-1.76v-55.48c0-.96.8-1.76,1.8-1.76h5.53c1,0,1.8.8,1.8,1.76v6.59c0,.23.17.33.3.4.17.07.43.03.6-.2,4.23-5.43,10.9-8.28,19.87-8.55.53,0,1,.2,1.33.53.37.33.57.8.57,1.26Z"/>
              <path class="cls-1" d="M786.3,33.57c-16.03,0-27.67,12.49-27.67,29.69s12.19,29.83,29.7,29.83c8.64,0,16.19-3.15,21.22-8.85.58-.66.58-1.66,0-2.35l-2.84-3.35c-.32-.36-.74-.6-1.19-.6-.42-.03-.97.17-1.29.53-3.97,4.21-9.38,6.43-15.7,6.43-11.48,0-19.73-7.09-21.02-18.09-.03-.17.06-.27.1-.33.1-.1.19-.17.32-.17h45.79v-.66c0-.43,0-.89.03-1.33.03-.36.06-.73.06-1.06,0-17.5-11.32-29.69-27.5-29.69ZM805.13,59.09c-.1.1-.23.13-.32.13h-36.86c-.13,0-.26-.03-.32-.13-.06-.07-.13-.17-.13-.33,1.39-10.31,8.93-17.23,18.8-17.23s17.54,6.93,18.93,17.23c.03.17-.06.27-.1.33Z"/>
            </g>
            <g>
              <path class="cls-1" d="M435.71,16.73c-.25-.4-.5-.75-.79-1.12-.44-.64-.94-1.29-1.3-1.97-.33-.54-.61-1.08-.9-1.66-.13-.28-.29-.58-.42-.89-.04-.14-.25-.58-.29-.71l-.79-2.13-.98,2.58c-.65,1.69-1.65,3.15-2.72,4.71-.4.58-.77,1.15-1.15,1.73-1.19,1.86-2.62,4.62-1.23,7.39,1.03,2.14,3.37,3.47,6.07,3.47h.21c2.8-.07,5.13-1.53,6.07-3.8,1.15-2.72-.29-5.37-1.8-7.6ZM430.02,26.92c-.67.28-2.7-.75-3.7-2.72-.98-1.95-.56-4.1.13-4.39.67-.28.08,2,1.05,3.97,1,1.95,3.2,2.84,2.51,3.14Z"/>
              <path class="cls-1" d="M435.99,39.62v52.74c0,.4-.33.73-.74.73h-7.99c-.41,0-.74-.33-.74-.73v-53.05c0-2.62,2.14-4.77,4.8-4.77,2.65,0,4.67,2.44,4.67,5.08Z"/>
              <path class="cls-1" d="M418.45,75.86c.03,3.98-1.4,7.56-4.13,10.34-4.37,4.41-11.74,6.79-21.3,6.89h-.43c-9.07,0-18.4-2.52-23.87-6.43-.73-.5-.93-1.49-.47-2.25l2.5-4.24c.27-.43.67-.73,1.13-.83.47-.13,1.03-.03,1.47.23,5.23,3.41,12.94,5.53,20.17,5.43,5.37-.03,9.43-.93,12.03-2.55,2.3-1.46,3.43-3.58,3.4-6.26-.03-6.13-7.47-7.32-16.07-8.68-10.9-1.76-23.24-3.71-23.37-16.77-.07-4.97,2.13-9.21,6.33-12.26,4.33-3.18,10.57-4.87,18.07-4.94h.4c7.37,0,15.37,1.82,20.47,4.67.83.46,1.13,1.52.63,2.35l-2.4,4.31c-.23.4-.63.7-1.07.83-.5.13-1.03.07-1.47-.2-4.5-2.62-10.1-4.01-16.14-4.01h-.37c-6.03.07-10.53,1.39-12.94,3.81-1.37,1.39-2.07,3.12-2.03,5.14.07,6.46,7.7,7.72,16.57,9.18,10.67,1.76,22.74,3.74,22.87,16.24Z"/>
              <path class="cls-1" d="M475.36,33.54c-18.24,0-31.47,12.49-31.47,29.73s13.24,29.83,31.47,29.83,31.37-12.56,31.37-29.83-13.2-29.73-31.37-29.73ZM475.36,84.91c-12.87,0-21.87-8.91-21.87-21.64s9-21.64,21.87-21.64,21.77,8.88,21.77,21.64-8.97,21.64-21.77,21.64Z"/>
              <path class="cls-1" d="M254.46,59.22v32.11c0,.96-.8,1.76-1.77,1.76h-5.53c-.97,0-1.73-.8-1.73-1.76v-31.35c0-11.53-5.7-17.6-16.5-17.6-12.07,0-19.3,7.46-19.3,20.02v28.93c0,.96-.77,1.76-1.73,1.76h-5.53c-.97,0-1.77-.8-1.77-1.76v-55.08c0-.96.8-1.72,1.77-1.72h5.2c.97,0,1.77.76,1.77,1.72v6.1c0,.27.17.36.23.4.07.03.3.07.47-.17,4.57-5.47,11.77-8.48,20.3-8.48,15.1,0,24.14,9.38,24.14,25.12Z"/>
              <path class="cls-1" d="M189.32,13.27v77.95c0,1.04-.83,1.87-1.83,1.87h-6.2c-1,0-1.8-.84-1.8-1.84V13.27c0-2.74,2.2-5.02,4.93-5.02s4.9,2.24,4.9,5.02Z"/>
              <path class="cls-1" d="M298.48,15.97c-.42,1.31-1.79,2.68-2.39,3.58-1.08,1.64-2.16.99-3.62.32-.93-.42-1.93-.66-2.94-.76-2.75-.29-6.58-.31-8.45,2.09-1.66,2.13-1.58,5.3-1.58,7.84v5.62c0,.23.2.43.47.43h16.34c1,0,1.8.76,1.8,1.71v4.33c0,.95-.8,1.74-1.8,1.74h-16.1c-.27,0-.47.16-.47.39v48.11c0,.95-.83,1.74-1.83,1.74h-5.87c-1,0-1.8-.79-1.8-1.74v-48.11c0-.23-.23-.39-.47-.39h-8.53c-1,0-1.8-.79-1.8-1.74v-4.33c0-.95.8-1.71,1.8-1.71h8.53c.23,0,.47-.2.47-.43v-5.94c0-5.15,1.06-10.89,5.38-14.29,2.1-1.65,4.69-2.53,7.32-2.92,4.26-.63,8.65-.38,12.71,1.11,1.47.54,3.44,1.5,2.84,3.36Z"/>
              <path class="cls-1" d="M359.71,35.83v55.08c0,.96-.77,1.72-1.73,1.72h-5.2c-.97,0-1.77-.76-1.77-1.72v-6.1c0-.26-.17-.36-.27-.4-.07,0-.27-.07-.47.17-4.53,5.47-11.77,8.52-20.3,8.52-15.1,0-24.1-9.41-24.1-25.15v-32.11c0-.96.77-1.72,1.73-1.72h5.57c.97,0,1.73.76,1.73,1.72v31.35c0,11.53,5.7,17.6,16.47,17.6,12.1,0,19.3-7.46,19.3-19.98v-28.96c0-.96.8-1.72,1.77-1.72h5.53c.97,0,1.73.76,1.73,1.72Z"/>
              <path class="cls-1" d="M567.41,59.22v32.11c0,.96-.8,1.76-1.77,1.76h-5.53c-.97,0-1.73-.8-1.73-1.76v-31.35c0-11.53-5.7-17.6-16.5-17.6-12.07,0-19.27,7.46-19.27,20.02v28.93c0,.96-.8,1.76-1.77,1.76h-5.53c-.97,0-1.77-.8-1.77-1.76v-55.08c0-.96.8-1.72,1.77-1.72h5.2c.97,0,1.77.76,1.77,1.72v6.1c0,.27.17.36.27.4.03.03.27.07.47-.17,4.53-5.47,11.77-8.48,20.3-8.48,15.1,0,24.1,9.38,24.1,25.12Z"/>
            </g>
          </g>
          <g>
            <path class="cls-1" d="M600.59,137.14v-21.79h-7.15c-.9,0-1.4-.44-1.4-1.23v-.19c0-.79.5-1.23,1.4-1.23h17.51c.9,0,1.4.44,1.4,1.23v.19c0,.79-.5,1.23-1.4,1.23h-7.11v21.79c0,.79-.5,1.23-1.4,1.23h-.46c-.9,0-1.4-.44-1.4-1.23Z"/>
            <path class="cls-1" d="M623.85,137.14v-23.21c0-.79.5-1.23,1.4-1.23h.46c.9,0,1.4.44,1.4,1.23v10.1h16.02v-10.1c0-.79.5-1.23,1.4-1.23h.46c.9,0,1.4.44,1.4,1.23v23.21c0,.79-.5,1.23-1.4,1.23h-.46c-.9,0-1.4-.44-1.4-1.23v-10.55h-16.02v10.55c0,.79-.5,1.23-1.4,1.23h-.46c-.9,0-1.4-.44-1.4-1.23Z"/>
            <path class="cls-1" d="M661.52,138.37c-.9,0-1.4-.44-1.4-1.23v-23.21c0-.79.5-1.23,1.4-1.23h15.97c.9,0,1.4.44,1.4,1.23v.19c0,.79-.5,1.23-1.4,1.23h-14.12v8.68h13.39c.9,0,1.4.44,1.4,1.23v.12c0,.79-.5,1.21-1.4,1.21h-13.39v9.13h14.12c.9,0,1.4.44,1.4,1.23v.19c0,.79-.5,1.23-1.4,1.23h-15.97Z"/>
            <path class="cls-1" d="M712.22,136.87c.75.96.46,1.5-.88,1.5h-.78c-.75,0-1.27-.26-1.69-.79l-6.94-8.46c-.69.03-1.4.05-2.15.05h-4.88v7.97c0,.79-.5,1.23-1.4,1.23h-.48c-.9,0-1.4-.44-1.4-1.23v-23.21c0-.79.5-1.23,1.4-1.23h6.8c8.75,0,13.19,1.91,13.19,8.2,0,4.66-2.62,6.99-7.58,7.86l6.79,8.11h0ZM709.74,120.99c0-4.75-3.62-5.73-9.98-5.73h-4.88v11.41h4.88c6.36,0,9.98-.92,9.98-5.68Z"/>
            <path class="cls-1" d="M748.08,138.37h-.58c-.75,0-1.28-.33-1.58-.96l-2.22-4.74h-15.66l-2.21,4.74c-.28.63-.83.96-1.58.96h-.54c-1.01,0-1.44-.59-1.06-1.43l11.22-23.29c.3-.65.83-.96,1.58-.96h.82c.75,0,1.28.31,1.58.96l11.24,23.29c.38.84-.02,1.43-1.02,1.43ZM735.86,115.94l-6.69,14.31h13.39l-6.7-14.31Z"/>
            <path class="cls-1" d="M761.15,138.37c-.9,0-1.4-.44-1.4-1.23v-23.21c0-.79.5-1.23,1.4-1.23h6.01c9,0,13.62,1.91,13.62,8.5s-4.62,8.5-13.6,8.5h-4.18v7.44c0,.79-.5,1.23-1.4,1.23h-.46ZM777.48,121.16c0-4.79-3.6-5.84-9.95-5.84h-4.52v11.71h4.52c6.36,0,9.95-1.05,9.95-5.86Z"/>
            <path class="cls-1" d="M798.96,137.14v-6.11l-11.22-16.86c-.54-.85-.17-1.47.9-1.47h.77c.75,0,1.27.26,1.65.85l9.53,14.49,9.65-14.49c.38-.59.9-.85,1.65-.85h.72c1.09,0,1.5.64.96,1.47l-11.36,16.86v6.11c0,.79-.5,1.23-1.4,1.23h-.46c-.9,0-1.4-.44-1.4-1.23Z"/>
          </g>
        </g>
        <path class="cls-1" d="M569.6,124.37H195.34c-5.06,0-10.14-.11-15.2,0-.22,0-.43,0-.65,0-1.51,0-1.52,2.34,0,2.34h374.26c5.06,0,10.14.11,15.2,0,.22,0,.43,0,.65,0,1.51,0,1.52-2.34,0-2.34h0Z"/>
      </g>
    </g>
  </g>
</svg>