<?xml version="1.0" encoding="UTF-8"?>
<svg id="Layer_2" data-name="Layer 2" xmlns="http://www.w3.org/2000/svg" xmlns:xlink="http://www.w3.org/1999/xlink" viewBox="0 0 468 708.21">
  <defs>
    <style>
      .cls-1 {
        fill: none;
      }

      .cls-2 {
        fill: url(#all_blue);
      }

      .cls-3 {
        fill: #7a99ac;
      }

      .cls-4 {
        fill: #d3dde5;
      }

      .cls-5 {
        fill: #7b99ac;
      }

      .cls-6 {
        fill: #f4f4f2;
      }
    </style>
    <pattern id="all_blue" data-name="all blue" x="0" y="0" width="160.73" height="187.45" patternTransform="translate(6526.36 -5867.94)" patternUnits="userSpaceOnUse" viewBox="0 0 160.73 187.45">
      <g>
        <rect class="cls-1" width="160.73" height="187.45"/>
        <g>
          <path class="cls-3" d="M10.48,162.91v-18.14c0-1.74,1.42-3.16,3.16-3.16h18.76s0-18.76,0-18.76c0-1.74,1.42-3.16,3.16-3.16h18.14c1.74,0,3.16,1.42,3.16,3.16v5.22c0,20.99-17.02,38.01-38.01,38.01h-5.22c-1.74,0-3.16-1.42-3.16-3.16Z"/>
          <path class="cls-3" d="M78.74,88.38v18.14c0,1.74-1.42,3.16-3.16,3.16h-18.76s0,18.76,0,18.76c0,1.74-1.42,3.16-3.16,3.16h-18.14c-1.74,0-3.16-1.42-3.16-3.16v-5.22c0-20.99,17.02-38.01,38.01-38.01h5.22c1.74,0,3.16,1.42,3.16,3.16Z"/>
          <g>
            <path class="cls-3" d="M150.24,162.91v-18.14c0-1.74-1.42-3.16-3.16-3.16h-18.76s0-18.76,0-18.76c0-1.74-1.42-3.16-3.16-3.16h-18.14c-1.74,0-3.16,1.42-3.16,3.16v5.22c0,20.99,17.02,38.01,38.01,38.01h5.22c1.74,0,3.16-1.42,3.16-3.16Z"/>
            <path class="cls-3" d="M81.98,88.38v18.14c0,1.74,1.42,3.16,3.16,3.16h18.76s0,18.76,0,18.76c0,1.74,1.42,3.16,3.16,3.16h18.14c1.74,0,3.16-1.42,3.16-3.16v-5.22c0-20.99-17.02-38.01-38.01-38.01h-5.22c-1.74,0-3.16,1.42-3.16,3.16Z"/>
          </g>
          <path class="cls-3" d="M150.24,24.54v18.14c0,1.74-1.42,3.16-3.16,3.16h-18.76s0,18.76,0,18.76c0,1.74-1.42,3.16-3.16,3.16h-18.14c-1.74,0-3.16-1.42-3.16-3.16v-5.22c0-20.99,17.02-38.01,38.01-38.01h5.22c1.74,0,3.16,1.42,3.16,3.16Z"/>
          <path class="cls-3" d="M81.98,99.07v-18.14c0-1.74,1.42-3.16,3.16-3.16h18.76s0-18.76,0-18.76c0-1.74,1.42-3.16,3.16-3.16h18.14c1.74,0,3.16,1.42,3.16,3.16v5.22c0,20.99-17.02,38.01-38.01,38.01h-5.22c-1.74,0-3.16-1.42-3.16-3.16Z"/>
          <g>
            <path class="cls-3" d="M10.48,24.54v18.14c0,1.74,1.42,3.16,3.16,3.16h18.76s0,18.76,0,18.76c0,1.74,1.42,3.16,3.16,3.16h18.14c1.74,0,3.16-1.42,3.16-3.16v-5.22c0-20.99-17.02-38.01-38.01-38.01h-5.22c-1.74,0-3.16,1.42-3.16,3.16Z"/>
            <path class="cls-3" d="M78.74,99.07v-18.14c0-1.74-1.42-3.16-3.16-3.16h-18.76s0-18.76,0-18.76c0-1.74-1.42-3.16-3.16-3.16h-18.14c-1.74,0-3.16,1.42-3.16,3.16v5.22c0,20.99,17.02,38.01,38.01,38.01h5.22c1.74,0,3.16-1.42,3.16-3.16Z"/>
          </g>
          <g>
            <path class="cls-4" d="M65.12,191.75v-8.66c0-.83.7-1.51,1.57-1.51h9.28v-8.96c0-.83.7-1.51,1.57-1.51h8.98c.86,0,1.57.68,1.57,1.51v2.49c0,10.02-8.42,18.15-18.81,18.15h-2.58c-.86,0-1.57-.68-1.57-1.51"/>
            <path class="cls-5" d="M98.85,183.15v8.66c0,.83-.7,1.51-1.57,1.51h-9.28v8.96c0,.83-.7,1.51-1.57,1.51h-8.98c-.86,0-1.57-.68-1.57-1.51v-2.49c0-10.02,8.42-18.15,18.81-18.15h2.58c.86,0,1.57.68,1.57,1.51"/>
          </g>
          <g>
            <path class="cls-4" d="M143.86,98.03v-8.66c0-.83.7-1.51,1.57-1.51h9.28v-8.96c0-.83.7-1.51,1.57-1.51h8.98c.86,0,1.57.68,1.57,1.51v2.49c0,10.02-8.42,18.15-18.81,18.15h-2.58c-.86,0-1.57-.68-1.57-1.51"/>
            <path class="cls-5" d="M177.59,89.43v8.66c0,.83-.7,1.51-1.57,1.51h-9.28v8.96c0,.83-.7,1.51-1.57,1.51h-8.98c-.86,0-1.57-.68-1.57-1.51v-2.49c0-10.02,8.42-18.15,18.81-18.15h2.58c.86,0,1.57.68,1.57,1.51"/>
          </g>
        </g>
        <g>
          <path class="cls-4" d="M-16.87,98.03v-8.66c0-.83.7-1.51,1.57-1.51H-6.02v-8.96c0-.83.7-1.51,1.57-1.51H4.53c.86,0,1.57.68,1.57,1.51v2.49c0,10.02-8.42,18.15-18.81,18.15h-2.58c-.86,0-1.57-.68-1.57-1.51"/>
          <path class="cls-5" d="M16.87,89.43v8.66c0,.83-.7,1.51-1.57,1.51H6.02v8.96c0,.83-.7,1.51-1.57,1.51H-4.53c-.86,0-1.57-.68-1.57-1.51v-2.49c0-10.02,8.42-18.15,18.81-18.15h2.58c.86,0,1.57.68,1.57,1.51"/>
        </g>
        <g>
          <path class="cls-4" d="M65.12,4.3V-4.36c0-.83.7-1.51,1.57-1.51h9.28v-8.96c0-.83.7-1.51,1.57-1.51h8.98c.86,0,1.57.68,1.57,1.51v2.49c0,10.02-8.42,18.15-18.81,18.15h-2.58c-.86,0-1.57-.68-1.57-1.51"/>
          <path class="cls-5" d="M98.85-4.3V4.36c0,.83-.7,1.51-1.57,1.51h-9.28v8.96c0,.83-.7,1.51-1.57,1.51h-8.98c-.86,0-1.57-.68-1.57-1.51v-2.49c0-10.02,8.42-18.15,18.81-18.15h2.58c.86,0,1.57.68,1.57,1.51"/>
        </g>
      </g>
    </pattern>
  </defs>
  <g id="Layer_1-2" data-name="Layer 1">
    <g>
      <rect class="cls-6" x="0" width="468" height="708.21"/>
      <rect class="cls-2" x="0" width="468" height="708.21"/>
    </g>
  </g>
</svg>