<?xml version="1.0" encoding="UTF-8"?>
<svg id="Layer_2" data-name="Layer 2" xmlns="http://www.w3.org/2000/svg" xmlns:xlink="http://www.w3.org/1999/xlink" viewBox="0 0 468 708.21">
  <defs>
    <style>
      .cls-1 {
        fill: none;
      }

      .cls-2 {
        fill: #7a99ac;
      }

      .cls-3 {
        fill: url(#sunclock);
      }

      .cls-4 {
        fill: #d2dde6;
      }
    </style>
    <pattern id="sunclock" x="0" y="0" width="241.09" height="187.45" patternTransform="translate(5669.02 -5625.07)" patternUnits="userSpaceOnUse" viewBox="0 0 241.09 187.45">
      <g>
        <rect class="cls-1" width="241.09" height="187.45"/>
        <g id="uuid-f6d46e5d-8b56-4610-96d7-5801800532e8" data-name="Layer 1-2">
          <g>
            <g>
              <polygon class="cls-2" points="161.34 188.05 161.36 184.97 204.41 185.36 204.38 188.44 161.34 188.05"/>
              <polygon class="cls-2" points="184.04 131.65 186.23 129.49 216.4 160.2 214.21 162.35 184.04 131.65"/>
              <polygon class="cls-2" points="239.97 107.74 243.05 107.77 242.66 150.81 239.59 150.78 239.97 107.74"/>
            </g>
            <circle class="cls-2" cx="240.8" cy="187.22" r="8.33"/>
          </g>
        </g>
        <g id="uuid-4d5f9663-fb35-4812-8970-be646057758f" data-name="Layer 1-2">
          <g>
            <g>
              <polygon class="cls-2" points="-1.12 107.74 1.96 107.77 1.58 150.81 -1.5 150.78 -1.12 107.74"/>
              <polygon class="cls-2" points="55.34 130.44 57.49 132.64 26.79 162.81 24.63 160.61 55.34 130.44"/>
              <polygon class="cls-2" points="79.19 186.4 79.17 189.48 36.12 189.09 36.15 186.02 79.19 186.4"/>
            </g>
            <circle class="cls-2" cx="-.29" cy="187.22" r="8.33"/>
          </g>
        </g>
        <g id="uuid-8e86d0a0-e9f5-4e14-bd9e-79eb73df8c26" data-name="Layer 1-2">
          <g>
            <g>
              <polygon class="cls-2" points="241.65 79.26 238.57 79.23 238.95 36.19 242.03 36.22 241.65 79.26"/>
              <polygon class="cls-2" points="185.2 56.55 183.04 54.36 213.75 24.19 215.91 26.39 185.2 56.55"/>
              <polygon class="cls-2" points="161.34 .6 161.36 -2.48 204.41 -2.09 204.38 .98 161.34 .6"/>
            </g>
            <circle class="cls-2" cx="240.8" cy="-.23" r="8.33"/>
          </g>
        </g>
        <g id="uuid-85446e88-060a-44ce-86cc-087ae2645bc2" data-name="Layer 1-2">
          <g>
            <g>
              <polygon class="cls-2" points="121.11 172.99 118.03 172.96 118.41 129.91 121.49 129.94 121.11 172.99"/>
              <polygon class="cls-2" points="64.65 150.28 62.5 148.08 93.21 117.92 95.36 120.11 64.65 150.28"/>
              <polygon class="cls-2" points="40.79 94.33 40.82 91.25 83.86 91.63 83.84 94.71 40.79 94.33"/>
              <polygon class="cls-2" points="63.49 37.92 65.69 35.76 95.86 66.47 93.66 68.63 63.49 37.92"/>
              <polygon class="cls-2" points="119.43 14.01 122.5 14.04 122.12 57.09 119.04 57.06 119.43 14.01"/>
              <polygon class="cls-2" points="175.88 36.72 178.04 38.91 147.33 69.08 145.17 66.88 175.88 36.72"/>
              <polygon class="cls-2" points="199.74 92.67 199.71 95.75 156.66 95.37 156.69 92.29 199.74 92.67"/>
              <polygon class="cls-2" points="177.06 149.12 174.86 151.28 144.69 120.57 146.89 118.41 177.06 149.12"/>
            </g>
            <circle class="cls-2" cx="120.26" cy="93.49" r="8.33"/>
          </g>
        </g>
        <g id="uuid-a6704bc1-65bd-4b91-8a3c-90081ac2b2a1" data-name="Layer 1-2">
          <g>
            <g>
              <polygon class="cls-2" points=".56 79.26 -2.52 79.23 -2.13 36.19 .94 36.22 .56 79.26"/>
              <polygon class="cls-2" points="79.19 -1.05 79.17 2.03 36.12 1.64 36.15 -1.44 79.19 -1.05"/>
              <polygon class="cls-2" points="56.51 55.39 54.32 57.55 24.15 26.84 26.35 24.69 56.51 55.39"/>
            </g>
            <circle class="cls-2" cx="-.29" cy="-.23" r="8.33"/>
          </g>
        </g>
      </g>
    </pattern>
  </defs>
  <g id="Layer_1-2" data-name="Layer 1">
    <g>
      <rect class="cls-4" width="468" height="708.21"/>
      <rect class="cls-3" width="468" height="708.21"/>
    </g>
  </g>
</svg>