<?xml version="1.0" encoding="UTF-8"?>
<svg id="Layer_2" data-name="Layer 2" xmlns="http://www.w3.org/2000/svg" viewBox="0 0 522.22 69.85">
  <defs>
    <style>
      .cls-1 {
        fill: #d2e1d7;
      }
    </style>
  </defs>
  <g id="Layer_1-2" data-name="Layer 1">
    <g>
      <g>
        <path class="cls-1" d="M339.9,34.96c0,15.61,11.16,27.39,25.97,27.39,7.14,0,12.9-2.38,17.59-7.33.52-.53,1.35-.53,1.84,0l3.04,3.27c.54.59.54,1.57,0,2.15-5.5,6.07-13.57,9.4-22.76,9.4-18.97,0-33.27-15-33.27-34.89S346.36.06,365.69.06c9.16,0,17.2,3.3,22.65,9.32.54.59.54,1.57,0,2.15l-3.04,3.25c-.49.56-1.3.56-1.84.03-4.72-4.9-10.48-7.25-17.59-7.25-14.82,0-25.97,11.78-25.97,27.39Z"/>
        <path class="cls-1" d="M437.5,21.2h-4.41c-.79,0-1.39.63-1.39,1.42v5.4c0,.22-.16.3-.21.3-.05.03-.24.08-.39-.11-3.88-4.75-9.66-7.37-16.22-7.37-13.46,0-23.25,10.29-23.25,24.45s9.79,24.55,23.25,24.55c6.77,0,12.62-2.73,16.48-7.69.13-.19.31-.14.37-.14.08.03.21.11.21.33v5.62c0,.79.63,1.45,1.39,1.45h4.17c.76,0,1.39-.65,1.39-1.45V22.62c0-.79-.63-1.42-1.39-1.42ZM415.4,63.11c-9.71,0-16.48-7.31-16.48-17.82s6.77-17.82,16.48-17.82,16.38,7.34,16.38,17.82-6.74,17.82-16.38,17.82Z"/>
        <path class="cls-1" d="M473.94,22.76v5.81h-.55c-.33,0-.63-.03-.93-.05-.25-.03-.47-.05-.69-.05-10.29,0-16.19,6.14-16.19,16.83v23.11c0,.79-.69,1.45-1.51,1.45h-4.83c-.82,0-1.48-.65-1.48-1.45V22.73c0-.79.66-1.45,1.48-1.45h4.56c.82,0,1.48.65,1.48,1.45v5.43c0,.19.14.27.25.33.14.05.36.03.49-.16,3.49-4.47,8.98-6.82,16.36-7.04.44,0,.82.16,1.1.44.3.27.47.65.47,1.04Z"/>
        <path class="cls-1" d="M499.58,20.85c-13.19,0-22.78,10.29-22.78,24.45s10.03,24.55,24.45,24.55c7.11,0,13.33-2.59,17.47-7.28.48-.55.48-1.36,0-1.94l-2.34-2.76c-.27-.3-.61-.49-.98-.49-.35-.03-.8.14-1.06.44-3.27,3.46-7.72,5.29-12.93,5.29-9.45,0-16.25-5.84-17.31-14.9-.03-.14.05-.22.08-.27.08-.08.16-.14.27-.14h37.7v-.55c0-.35,0-.74.03-1.09.03-.3.05-.6.05-.87,0-14.41-9.32-24.45-22.64-24.45ZM515.08,41.86c-.08.08-.19.11-.27.11h-30.34c-.11,0-.21-.03-.27-.11-.05-.05-.11-.14-.11-.27,1.14-8.48,7.35-14.19,15.48-14.19s14.44,5.7,15.58,14.19c.03.14-.05.22-.08.27Z"/>
      </g>
      <g>
        <path class="cls-1" d="M210.95,6.98c-.21-.33-.41-.62-.65-.92-.36-.53-.77-1.06-1.07-1.62-.27-.44-.5-.89-.74-1.36-.11-.23-.24-.47-.35-.73-.03-.11-.2-.47-.24-.59l-.65-1.75-.8,2.12c-.54,1.39-1.36,2.6-2.24,3.87-.33.47-.63.95-.95,1.42-.98,1.54-2.16,3.8-1.01,6.08.85,1.76,2.77,2.86,5,2.86h.17c2.3-.06,4.23-1.26,5-3.13.95-2.24-.24-4.42-1.48-6.26ZM206.27,15.37c-.55.23-2.22-.62-3.04-2.24-.8-1.61-.46-3.37.11-3.62.55-.23.06,1.65.87,3.27.82,1.61,2.63,2.34,2.07,2.58Z"/>
        <path class="cls-1" d="M211.18,25.83v43.42c0,.33-.27.6-.61.6h-6.58c-.34,0-.61-.27-.61-.6V25.57c0-2.16,1.76-3.93,3.95-3.93s3.84,2.01,3.84,4.18Z"/>
        <path class="cls-1" d="M196.74,55.66c.03,3.27-1.15,6.22-3.4,8.51-3.6,3.63-9.66,5.59-17.54,5.67h-.36c-7.47,0-15.15-2.07-19.65-5.29-.6-.41-.77-1.23-.38-1.86l2.06-3.49c.22-.35.55-.6.93-.68.38-.11.85-.03,1.21.19,4.31,2.81,10.65,4.56,16.61,4.47,4.42-.03,7.77-.76,9.91-2.1,1.89-1.2,2.83-2.95,2.8-5.16-.03-5.05-6.15-6.03-13.23-7.15-8.98-1.45-19.13-3.06-19.24-13.81-.05-4.09,1.76-7.58,5.22-10.09,3.57-2.62,8.7-4.01,14.88-4.07h.33c6.07,0,12.65,1.5,16.85,3.85.69.38.93,1.26.52,1.94l-1.98,3.55c-.19.33-.52.57-.88.68-.41.11-.85.05-1.21-.16-3.7-2.16-8.32-3.3-13.28-3.3h-.3c-4.97.05-8.67,1.15-10.65,3.14-1.13,1.15-1.7,2.56-1.67,4.23.05,5.32,6.34,6.36,13.64,7.56,8.78,1.45,18.72,3.08,18.83,13.37Z"/>
        <path class="cls-1" d="M243.59,20.82c-15.01,0-25.91,10.29-25.91,24.47s10.9,24.55,25.91,24.55,25.83-10.34,25.83-24.55-10.87-24.47-25.83-24.47ZM243.59,63.11c-10.59,0-18.01-7.34-18.01-17.82s7.41-17.82,18.01-17.82,17.92,7.31,17.92,17.82-7.38,17.82-17.92,17.82Z"/>
        <path class="cls-1" d="M61.73,41.97v26.44c0,.79-.66,1.45-1.45,1.45h-4.56c-.8,0-1.43-.65-1.43-1.45v-25.81c0-9.49-4.69-14.49-13.59-14.49-9.94,0-15.89,6.14-15.89,16.48v23.82c0,.79-.63,1.45-1.43,1.45h-4.56c-.8,0-1.45-.65-1.45-1.45V23.06c0-.79.66-1.42,1.45-1.42h4.28c.8,0,1.45.63,1.45,1.42v5.02c0,.22.14.3.19.33.05.03.25.05.38-.14,3.76-4.5,9.69-6.98,16.72-6.98,12.43,0,19.87,7.72,19.87,20.68Z"/>
        <path class="cls-1" d="M8.1,4.13v64.17c0,.85-.69,1.54-1.51,1.54H1.48c-.82,0-1.48-.69-1.48-1.52V4.13C0,1.87,1.81,0,4.06,0s4.03,1.85,4.03,4.13Z"/>
        <path class="cls-1" d="M97.97,6.35c-.35,1.08-1.48,2.2-1.96,2.94-.89,1.35-1.77.81-2.98.26-.76-.35-1.59-.54-2.42-.63-2.26-.24-5.41-.26-6.95,1.72-1.36,1.75-1.3,4.36-1.3,6.45v4.62c0,.19.16.35.38.35h13.45c.82,0,1.48.62,1.48,1.41v3.57c0,.78-.66,1.43-1.48,1.43h-13.26c-.22,0-.38.14-.38.32v39.61c0,.78-.69,1.43-1.51,1.43h-4.83c-.82,0-1.48-.65-1.48-1.43V28.81c0-.19-.19-.32-.38-.32h-7.03c-.82,0-1.48-.65-1.48-1.43v-3.57c0-.78.66-1.41,1.48-1.41h7.03c.19,0,.38-.16.38-.35v-4.89c0-4.24.88-8.96,4.43-11.76,1.73-1.36,3.86-2.08,6.03-2.4,3.51-.52,7.12-.31,10.46.92,1.21.44,2.83,1.24,2.34,2.77Z"/>
        <path class="cls-1" d="M148.38,22.71v45.34c0,.79-.63,1.42-1.43,1.42h-4.28c-.8,0-1.45-.63-1.45-1.42v-5.02c0-.22-.14-.3-.22-.33-.05,0-.22-.05-.38.14-3.73,4.5-9.69,7.01-16.72,7.01-12.43,0-19.84-7.75-19.84-20.71v-26.44c0-.79.63-1.42,1.43-1.42h4.58c.8,0,1.43.63,1.43,1.42v25.81c0,9.49,4.69,14.49,13.56,14.49,9.96,0,15.89-6.14,15.89-16.45v-23.85c0-.79.66-1.42,1.45-1.42h4.56c.8,0,1.43.63,1.43,1.42Z"/>
        <path class="cls-1" d="M319.37,41.97v26.44c0,.79-.66,1.45-1.45,1.45h-4.56c-.8,0-1.43-.65-1.43-1.45v-25.81c0-9.49-4.69-14.49-13.59-14.49-9.94,0-15.86,6.14-15.86,16.48v23.82c0,.79-.66,1.45-1.45,1.45h-4.56c-.8,0-1.45-.65-1.45-1.45V23.06c0-.79.66-1.42,1.45-1.42h4.28c.8,0,1.45.63,1.45,1.42v5.02c0,.22.14.3.22.33.03.03.22.05.38-.14,3.73-4.5,9.69-6.98,16.72-6.98,12.43,0,19.84,7.72,19.84,20.68Z"/>
      </g>
    </g>
  </g>
</svg>