<?xml version="1.0" encoding="UTF-8"?>
<svg id="Layer_2" data-name="Layer 2" xmlns="http://www.w3.org/2000/svg" viewBox="0 0 186.91 166.68">
  <defs>
    <style>
      .cls-1, .cls-2 {
        fill: #d2e1d7;
      }

      .cls-2 {
        opacity: .55;
      }
    </style>
  </defs>
  <g id="Layer_1-2" data-name="Layer 1">
    <g>
      <path class="cls-1" d="M184.01,65.11c-.79,2.18-2.65,6.81-6.32,13.33-.55.98-1.07,1.87-1.58,2.73l-29.11.24-2.32,6.15-9.13-42.54-14.24,61.19-13.45-77.82-14.22,57.44-79.69.9c-.65-.98-1.27-1.93-1.86-2.85-5.2-8.21-7.75-14.01-8.8-16.73-4.67-12.11-4.34-25.34.92-37.21,5.26-11.88,14.85-20.99,26.96-25.67,5.46-2.1,11.16-3.19,16.94-3.26,16.18-.18,31.33,7.63,40.52,20.89l4.59,6.62,4.43-6.73C106.56,8.33,121.53.17,137.71,0h.55c5.6,0,11.12.96,16.44,2.88,12.23,4.39,22.01,13.3,27.55,25.06,5.53,11.76,6.15,24.95,1.75,37.17Z"/>
      <path class="cls-2" d="M172.69,86.66c-8.02,12.3-22.26,30.52-46.3,51.91l-31.62,28.11-32.22-27.39c-18.61-15.81-33.68-31.66-44.84-47.15l80.2-.9,9-36.31,13.6,78.74,14.82-63.66,7.89,36.84,7.55-20.02,21.92-.17Z"/>
    </g>
  </g>
</svg>